<svg xmlns="http://www.w3.org/2000/svg" width="22" height="22" viewBox="0 0 40.47 40.47"><defs><style>.d{fill:#1d1d1b;}</style></defs><g id="a"/><g id="b"><g id="c"><path class="d" d="M20.24,0C9.06,0,0,9.06,0,20.24s9.06,20.24,20.24,20.24,20.24-9.06,20.24-20.24S31.41,0,20.24,0ZM8.87,14.36c0-1.64,1.33-2.96,2.96-2.96s2.96,1.33,2.96,2.96-1.33,2.96-2.96,2.96-2.96-1.33-2.96-2.96ZM30.33,30.47c-.06,1.01-.81,1.88-1.88,1.88-.97,0-1.94-.86-1.88-1.88,.23-3.57-2.58-6.68-6.11-6.78-3.62-.1-6.54,2.78-6.59,6.36-.03,2.42-3.78,2.41-3.75,0,.03-2.48,.91-4.8,2.53-6.68,2.7-3.15,7.4-4.29,11.24-2.74,3.92,1.58,6.71,5.53,6.44,9.84Zm-1.68-13.15c-1.64,0-2.96-1.33-2.96-2.96s1.33-2.96,2.96-2.96,2.96,1.33,2.96,2.96-1.33,2.96-2.96,2.96Z"/></g></g></svg>