<svg xmlns="http://www.w3.org/2000/svg" width="22" height="22" viewBox="0 0 40.47 40.47"><defs><style>.d{fill:#1d1d1b;}</style></defs><g id="a"/><g id="b"><g id="c"><path class="d" d="M20.23,0C9.06,0,0,9.06,0,20.24s9.06,20.23,20.23,20.23,20.24-9.06,20.24-20.23S31.41,0,20.23,0ZM8.87,14.36c0-1.63,1.32-2.96,2.96-2.96s2.96,1.33,2.96,2.96-1.33,2.96-2.96,2.96-2.96-1.32-2.96-2.96Zm19.3,15.11c-2.57,3.31-7.2,4.75-11.18,3.34-4.09-1.45-6.81-5.24-6.87-9.57-.03-2.42,3.72-2.42,3.75,0,.05,3.57,2.97,6.45,6.6,6.35,3.52-.09,6.33-3.2,6.1-6.77-.06-1.02,.91-1.88,1.88-1.88,1.06,0,1.81,.86,1.87,1.88,.16,2.39-.69,4.78-2.15,6.65Zm.47-12.15c-1.63,0-2.96-1.32-2.96-2.96s1.33-2.96,2.96-2.96,2.96,1.33,2.96,2.96-1.32,2.96-2.96,2.96Z"/></g></g></svg>