<svg xmlns="http://www.w3.org/2000/svg" width="22" height="22" viewBox="0 0 40.47 40.47"><defs><style>.d{fill:#1d1d1b;}</style></defs><g id="a"/><g id="b"><g id="c"><g><path class="d" d="M11.51,24.21l.02,.02h0s-.02-.02-.03-.03v.02Z"/><path class="d" d="M11.5,24.19c-.05-.05-.09-.07,0,.01h0Z"/><path class="d" d="M20.24,0C9.06,0,0,9.06,0,20.24s9.06,20.24,20.24,20.24,20.24-9.06,20.24-20.24S31.41,0,20.24,0Zm8.41,11.4c1.64,0,2.96,1.33,2.96,2.96s-1.33,2.96-2.96,2.96-2.96-1.33-2.96-2.96,1.33-2.96,2.96-2.96Zm-16.82,0c1.64,0,2.96,1.33,2.96,2.96s-1.33,2.96-2.96,2.96-2.96-1.33-2.96-2.96,1.33-2.96,2.96-2.96ZM28.87,28.39c-2.59,.93-5.51,1.16-8.24,1.19-2.87,.03-5.92-.18-8.67-1.07-1.87-.6-3.93-1.63-4.07-3.83-.14-2.26,3.15-2.39,3.68-.42l.02,.02h.02c.13,.1,.27,.18,.41,.25,.57,.3,1.28,.49,1.99,.66,2.04,.5,4.14,.64,6.23,.64s4.29-.15,6.37-.68c.7-.18,1.36-.36,1.93-.68,.11-.06,.21-.12,.32-.19,.09-.72,.53-1.35,1.33-1.57,.91-.25,2.13,.31,2.31,1.31,.42,2.4-1.65,3.66-3.62,4.37Z"/></g></g></g></svg>