<svg xmlns="http://www.w3.org/2000/svg" width="22" height="22" viewBox="0 0 40.47 40.47"><defs><style>.d{fill:#1d1d1b;}</style></defs><g id="a"/><g id="b"><g id="c"><path class="d" d="M20.24,0C9.06,0,0,9.06,0,20.24s9.06,20.24,20.24,20.24,20.24-9.06,20.24-20.24S31.41,0,20.24,0Zm8.41,11.4c1.64,0,2.96,1.33,2.96,2.96s-1.33,2.96-2.96,2.96-2.96-1.33-2.96-2.96,1.33-2.96,2.96-2.96Zm-16.82,0c1.64,0,2.96,1.33,2.96,2.96s-1.33,2.96-2.96,2.96-2.96-1.33-2.96-2.96,1.33-2.96,2.96-2.96Zm18.03,15.3H10.61c-1.02,0-1.85-.83-1.85-1.85s.83-1.85,1.85-1.85H29.86c1.02,0,1.85,.83,1.85,1.85s-.83,1.85-1.85,1.85Z"/></g></g></svg>