<?xml version="1.0" encoding="utf-8"?>
<!-- Generator: Adobe Illustrator 26.1.0, SVG Export Plug-In . SVG Version: 6.00 Build 0)  -->
<svg version="1.1" id="Слой_1" xmlns="http://www.w3.org/2000/svg" xmlns:xlink="http://www.w3.org/1999/xlink" x="0px" y="0px"
	 viewBox="0 0 136.4 38.3" style="enable-background:new 0 0 136.4 38.3;" xml:space="preserve">
<style type="text/css">
	.st0{fill-rule:evenodd;clip-rule:evenodd;fill:#00897B;}
</style>
<g id="a">
</g>
<g id="b">
	<g id="c">
		<g id="d">
			<g id="e">
				<g>
					<path class="st0" d="M7.4,18.6c0-2-1.7-3.7-3.7-3.7S0,16.6,0,18.6c0,10.2,8.4,18.6,18.6,18.6c3.8,0,7.3-1.1,10.3-3.1l3.1,3.1
						c1.5,1.5,3.8,1.5,5.3,0s1.5-3.8,0-5.3l-3.1-3.1c2-3,3.1-6.5,3.1-10.3C37.3,8.4,28.9,0,18.6,0c-2,0-3.7,1.7-3.7,3.7
						s1.7,3.7,3.7,3.7c3.1,0,5.9,1.3,7.9,3.3s3.3,4.8,3.3,7.9c0,1.7-0.4,3.4-1.1,4.8l-7.3-7.3c-1.5-1.4-3.8-1.4-5.3,0
						s-1.4,3.8,0,5.3l7.3,7.3c-1.5,0.7-3.1,1.1-4.8,1.1c-3.1,0-5.9-1.3-7.9-3.3S7.4,21.7,7.4,18.6L7.4,18.6L7.4,18.6z"/>
				</g>
				<g>
					<circle class="st0" cx="3.7" cy="11.2" r="3.7"/>
				</g>
				<g>
					<circle class="st0" cx="11.2" cy="3.7" r="3.7"/>
				</g>
				<g>
					<path class="st0" d="M3.7,7.4c2.1,0,3.7-1.7,3.7-3.7S5.8,0,3.7,0S0,1.7,0,3.7S1.7,7.5,3.7,7.4L3.7,7.4z"/>
				</g>
			</g>
			<g>
				<path class="st0" d="M136,26.7l-8.1-19.5h-5.6l-8.2,19.6c-0.2,0.5-0.4,0.8-0.4,1.4c0,1.6,1.3,2.9,2.8,2.9c1.4,0,2.3-0.8,2.8-2.1
					l1-2.6h9.3l0.9,2.4c0.5,1.4,1.3,2.3,2.9,2.3c1.6,0,2.9-1.3,2.9-3C136.4,27.5,136.3,27.2,136,26.7L136,26.7L136,26.7z M125,13.6
					l3,8.2h-6C122,21.8,125,13.6,125,13.6z"/>
			</g>
			<g>
				<path class="st0" d="M108.7,28.2V12.1h6.8V7.2H96.2v4.9h6.8v16.1c0,1.6,1.3,2.9,2.9,2.9S108.7,29.8,108.7,28.2L108.7,28.2
					L108.7,28.2z"/>
			</g>
			<g>
				<path class="st0" d="M93.5,28.2v-21h-8.8c-2.8,0-5.1,0.6-6.8,1.8s-2.6,3-2.6,5.6c0,1.7,0.4,3.1,1.2,4.3s2,2,3.5,2.5l-3.3,5.3
					c-0.3,0.6-0.5,1-0.5,1.7c0,1.5,1.1,2.7,2.5,2.8c1.5,0,2.2-0.4,2.9-1.7l4.1-7.2h2v6c0,1.6,1.3,2.9,2.9,2.9S93.5,29.8,93.5,28.2
					L93.5,28.2L93.5,28.2z M87.7,17.9h-2.5c-1.3,0-2.3-0.2-3.1-0.7c-0.8-0.5-1.2-1.3-1.2-2.3c0-2,1.3-3,4.1-3h2.7L87.7,17.9
					L87.7,17.9L87.7,17.9z"/>
			</g>
			<g>
				<path class="st0" d="M60,28.8l5.3-14.6h0.1l-0.1,14.2c0,1.5,1.3,2.7,2.8,2.7s2.8-1.3,2.8-2.8V7.2h-8.3l-5.2,15.3h-0.1L51.8,7.2
					h-8.2v21.2c0,1.5,1.2,2.7,2.7,2.7s2.7-1.2,2.7-2.7c0-4.7-0.1-9.5-0.1-14.2H49l5.2,14.4c0.5,1.4,1.1,2.5,2.9,2.5h0.1
					C58.8,31.1,59.4,30.1,60,28.8L60,28.8L60,28.8z"/>
			</g>
		</g>
	</g>
</g>
</svg>
