<?xml version="1.0" encoding="UTF-8"?><svg xmlns="http://www.w3.org/2000/svg" viewBox="0 0 136.44 38.35"><defs><style>.h{fill:#fff;fill-rule:evenodd;}</style></defs><g id="a"/><g id="b"><g id="c"><g id="d"><g id="e"><g id="f"><g id="g"><path class="h" d="M7.46,18.63c0-2.05-1.68-3.73-3.73-3.73s-3.73,1.68-3.73,3.73c0,10.25,8.38,18.63,18.63,18.63,3.78,0,7.31-1.14,10.26-3.1l3.1,3.1c1.45,1.45,3.82,1.45,5.27,0s1.45-3.82,0-5.27l-3.1-3.1c1.96-2.95,3.1-6.48,3.1-10.26,0-10.25-8.37-18.63-18.62-18.63-2.05,0-3.73,1.68-3.73,3.73s1.68,3.73,3.73,3.73c3.07,0,5.86,1.26,7.89,3.29,2.03,2.03,3.29,4.82,3.29,7.89,0,1.72-.4,3.35-1.1,4.81l-7.26-7.26c-1.45-1.45-3.82-1.45-5.27,0-1.45,1.45-1.45,3.82,0,5.27l7.26,7.26c-1.46,.7-3.09,1.1-4.81,1.1-3.07,0-5.86-1.26-7.89-3.29-2.03-2.03-3.29-4.82-3.29-7.89h0Z"/><path class="h" d="M3.74,14.9c2.05,0,3.73-1.68,3.73-3.73s-1.68-3.73-3.73-3.73S.01,9.12,.01,11.17s1.68,3.73,3.73,3.73Z"/><path class="h" d="M7.46,3.73c0,2.05,1.68,3.73,3.73,3.73s3.73-1.68,3.73-3.73-1.68-3.73-3.73-3.73-3.73,1.68-3.73,3.73Z"/><path class="h" d="M3.74,7.45c2.06,0,3.73-1.67,3.73-3.73S5.79,0,3.74,0,.01,1.67,.01,3.73s1.67,3.73,3.73,3.73h0Z"/></g><path class="h" d="M136.05,26.7l-8.1-19.5h-5.61l-8.24,19.64c-.22,.53-.38,.82-.38,1.42,0,1.58,1.27,2.86,2.85,2.88,1.4,0,2.31-.8,2.79-2.07l.98-2.63h9.27l.95,2.4c.54,1.37,1.27,2.3,2.93,2.3,1.63-.02,2.95-1.34,2.95-2.98,0-.62-.16-.92-.38-1.46h0Zm-11.01-13.11l2.98,8.22h-6.02l3.04-8.22Z"/><path class="h" d="M108.71,28.25V12.14h6.76V7.2h-19.31v4.94h6.76V28.25c0,1.6,1.29,2.89,2.89,2.89s2.89-1.29,2.89-2.89h0Z"/><path class="h" d="M93.53,28.25V7.2h-8.79c-2.8,0-5.07,.59-6.81,1.76s-2.62,3.04-2.62,5.61c0,1.67,.42,3.09,1.25,4.26s2,2.02,3.48,2.54l-3.27,5.31c-.35,.56-.54,.96-.54,1.66,0,1.46,1.11,2.66,2.53,2.8,1.54,0,2.16-.42,2.89-1.7l4.08-7.19h2.03v6c0,1.6,1.29,2.89,2.89,2.89s2.89-1.29,2.89-2.89h-.01Zm-5.78-10.4h-2.5c-1.26,0-2.29-.25-3.08-.74-.79-.5-1.18-1.27-1.18-2.33,0-1.98,1.35-2.98,4.06-2.98h2.71v6.05h0Z"/><path class="h" d="M59.98,28.75l5.34-14.55h.1l-.11,14.21c-.01,1.51,1.31,2.73,2.8,2.73s2.82-1.26,2.82-2.82V7.2h-8.35l-5.21,15.35h-.14l-5.44-15.35h-8.22V28.42c0,1.5,1.22,2.72,2.72,2.72s2.71-1.21,2.7-2.73c-.03-4.74-.08-9.48-.11-14.22h.1l5.16,14.44c.51,1.42,1.11,2.47,2.87,2.5h.1c1.67-.03,2.35-1.02,2.86-2.39h.01Z"/></g></g></g></g></g></svg>