<?xml version="1.0" encoding="UTF-8"?><svg xmlns="http://www.w3.org/2000/svg" viewBox="0 0 113.74 137.28"><defs><style>.d{fill:#4d897b;}</style></defs><g id="a"/><g id="b"><g id="c"><g><path class="d" d="M61.15,103.91c2.08,0,4.16-.06,6.24,.02,1.29,.05,2.05,.98,2.39,2.32,.34,1.37-.05,2.55-1.07,3.34-.53,.41-1.26,.67-1.9,.67-6.6,.05-13.2,.06-19.8,.01-1.92-.01-3.15-1.38-3.17-3.2-.02-1.82,1.2-3.15,3.13-3.22,1.89-.08,3.78-.02,6.09-.02-1.76-2.1-3.2-3.87-4.69-5.6-1.18-1.37-2.39-2.73-3.66-4-.45-.45-1.13-.89-1.7-.9-7.24-.06-14.47-.03-21.71-.06-.82,0-1.18,.26-1.45,1.15-1.03,3.43-2.13,6.84-3.23,10.24-1.66,5.09-3.32,10.18-5.02,15.26-1.15,3.46-2.36,6.9-3.6,10.51H105.74c-.26-.91-.5-1.8-.78-2.67-.63-1.93-1.3-3.84-1.93-5.76-1.82-5.56-3.62-11.14-5.44-16.7-.64-1.97-1.31-3.94-1.98-5.91-.6-1.78-1.18-3.57-1.88-5.3-.16-.39-.79-.75-1.21-.75-3.28-.06-6.55-.01-9.83-.05-2.02-.03-3.33-1.55-3.21-3.59,.09-1.59,1.4-3.02,3.04-3.04,4.55-.06,9.1-.06,13.65,0,1.54,.02,2.58,.9,3.12,2.63,1.6,5.06,3.3,10.08,4.95,15.12,1.67,5.08,3.34,10.17,5.02,15.25,1.38,4.18,2.84,8.34,4.17,12.54,.95,3.02-.32,4.95-3.19,5.08-.32,.01-.64,0-.96,0-34.91,0-69.82,0-104.73,0-.5,0-1.01,.03-1.5-.04-2.49-.34-3.59-2.18-2.78-4.84,1.05-3.48,2.18-6.92,3.29-10.38,.76-2.36,1.54-4.71,2.31-7.06,1.69-5.13,3.38-10.27,5.06-15.4,.77-2.35,1.52-4.72,2.32-7.06,.46-1.35,.96-2.69,1.51-3.99,.69-1.62,2.04-1.88,3.45-1.89,5.96-.01,11.93,0,17.89,0,.5,0,1,0,1.68,0-.21-.4-.3-.72-.49-.93-3.02-3.44-6.12-6.8-9.06-10.33-2.23-2.69-4.34-5.51-6.32-8.43-2.54-3.75-4.14-8.04-5.51-12.5-2.4-7.83-2.6-15.71-.47-23.51,1.03-3.78,2.7-7.49,4.71-10.76,4.51-7.33,10.64-12.61,18.05-16.04,10.39-4.81,20.99-5.35,31.75-1.91,5.08,1.62,9.76,4.26,13.98,7.88,4.05,3.48,7.4,7.55,10.06,12.45,5.47,10.06,5.95,20.7,3.05,31.62-1.05,3.94-2.8,7.73-4.69,11.29-2.12,4-4.98,7.44-8.06,10.64-2.01,2.09-3.82,4.41-5.73,6.61-3.86,4.42-7.75,8.81-11.61,13.24-2.16,2.48-4.28,5.01-6.42,7.52l.14,.45Zm-4.4-6.33c3.1-3.38,6.14-6.59,9.07-9.92,3.76-4.26,7.43-8.62,11.15-12.93,.97-1.12,1.89-2.3,2.92-3.35,3.77-3.89,6.75-8.38,9.07-13.52,1.99-4.41,2.7-9.15,3.58-13.85,.59-3.18-.3-6.32-.86-9.42-1.04-5.7-3.62-10.49-7.1-14.79-2.65-3.27-5.71-5.9-9.14-7.96-5.14-3.1-10.69-4.75-16.54-5.04-6.94-.35-13.54,1.09-19.75,4.63-3.94,2.25-7.39,5.15-10.34,8.88-3.92,4.96-6.51,10.56-7.18,17.17-.63,6.18-.07,12.19,2.34,17.88,1.21,2.86,2.47,5.69,3.88,8.43,.75,1.47,1.77,2.79,2.81,4.04,2.21,2.64,4.52,5.18,6.77,7.77,1.82,2.09,3.62,4.2,5.44,6.29,3.02,3.45,6.05,6.88,9.08,10.31,1.61,1.82,3.23,3.62,4.81,5.4Z"/><path class="d" d="M56.43,58.65c-5.16-.07-10.01-2.25-13.54-7.09-3.15-4.32-4.24-9.47-2.41-14.79,2.9-8.44,10.52-12.62,18.49-11.74,4.56,.51,8.34,2.74,11.57,6.32,3.36,3.72,4.62,12.03,2.46,16.6-3.4,7.16-9.17,10.59-16.56,10.69Zm1.08-6.65c.63-.14,1.92-.24,3.1-.7,5.96-2.36,8.61-9.01,5.15-14.77-3.12-5.2-9.54-6.45-14.45-3.3-5.06,3.25-5.85,8.88-3.73,13.03,1.97,3.87,5.27,5.66,9.92,5.74Z"/></g></g></g></svg>