<?xml version="1.0" encoding="UTF-8"?><svg xmlns="http://www.w3.org/2000/svg" viewBox="0 0 132.43 173.79"><defs><style>.d{fill:#4d897b;}</style></defs><g id="a"/><g id="b"><g id="c"><g><path class="d" d="M16.31,173.79c-2.22-.78-4.6-1.27-6.62-2.41C3.3,167.78,.07,162.15,.03,154.82c-.06-12.22-.02-24.43-.02-36.65,0-32.97,0-65.94,0-98.91C.02,10.01,5.7,2.62,14.43,.55,16.01,.17,17.68,.03,19.3,.03,39.66,0,60.02,.03,80.38,0c5.42,0,10.02,1.85,13.94,5.57,10.45,9.93,20.91,19.86,31.43,29.72,4.52,4.24,6.66,9.33,6.65,15.53-.05,34.44-.11,68.88,.02,103.32,.04,11.16-8.04,18.48-15.91,19.4-.15,.02-.29,.16-.43,.24H16.31ZM79.44,10.19h-1.97c-19.29,0-38.58,0-57.86,0-5.95,0-9.4,3.43-9.4,9.34,0,44.91,0,89.82,0,134.73,0,5.91,3.46,9.34,9.41,9.34,31.05,0,62.11,0,93.16,0,6.02,0,9.43-3.43,9.43-9.48,0-33.77,0-67.54,0-101.31v-1.89h-2.07c-9.28,0-18.55,0-27.83,0-7.96,0-12.86-4.94-12.86-12.94,0-8.6,0-17.2,0-25.79v-2Zm37.23,30.55c-9.16-8.66-17.96-16.98-26.94-25.47-.06,.54-.1,.75-.1,.96,0,7.4-.01,14.8,0,22.2,0,1.76,.56,2.3,2.35,2.3,4.41,.02,8.81,0,13.22,0,3.66,0,7.31,0,11.47,0Z"/><path class="d" d="M65.06,78.07c-12.26,0-24.53,.01-36.79,0-3.99,0-6.56-3.52-5.12-6.97,.87-2.07,2.51-3.15,4.76-3.19,2.15-.04,4.3-.01,6.44-.01,22.55,0,45.1,0,67.65,0,4.1,0,6.71,3.55,5.17,7.05-.97,2.2-2.77,3.14-5.16,3.13-12.32-.02-24.64,0-36.96,0Z"/><path class="d" d="M65.2,105.23c-12.32,0-24.64,.01-36.96,0-3.98,0-6.55-3.56-5.07-7,.91-2.13,2.63-3.17,4.95-3.17,4.24,0,8.48,0,12.72,0,20.4,0,40.81,0,61.21,0,4.08,0,6.69,3.59,5.13,7.08-.98,2.19-2.8,3.11-5.18,3.11-10.63-.02-21.25,0-31.88,0-1.64,0-3.28,0-4.92,0Z"/><path class="d" d="M40.11,132.38c-3.9,0-7.81,.01-11.71,0-3.31-.01-5.61-2.08-5.64-5.04-.03-3.02,2.3-5.13,5.71-5.13,7.81,0,15.61,0,23.42,0,3.39,0,5.77,2.14,5.74,5.12-.03,2.99-2.39,5.05-5.82,5.05-3.9,0-7.81,0-11.71,0Z"/></g></g></g></svg>