<?xml version="1.0" encoding="UTF-8"?><svg xmlns="http://www.w3.org/2000/svg" viewBox="0 0 167.15 154.44"><defs><style>.d{fill:#4d897b;}</style></defs><g id="a"/><g id="b"><g id="c"><g><g><path class="d" d="M165.9,31.5c-.9,1.35-2.19,1.65-3.74,1.62-3.8-.07-7.61-.05-11.42,0-.52,0-1.3,.32-1.51,.73-1.67,3.22-4.34,4.58-7.87,4.56-3.59-.02-7.18,0-10.77,0-.58,0-1.17,0-1.97,0,0,1.67,0,3.21,0,4.75-.03,5.39-3.21,8.56-8.63,8.57-6.8,.02-13.6,0-20.52,0-.79,6.85-5.35,8.43-11.32,7.96-1.14,3.99-1.16,7.88,.14,11.64,.88,2.56-.08,4.51-3.27,4.33-2.67-.15-5.36,0-8.04-.05-.95-.02-1.41,.25-1.68,1.22-3.47,12.53-6.99,25.05-10.47,37.57-.7,2.52,.48,4.07,3.08,4.19,.53,.02,1.07,0,1.61,0,3.93,.03,5.91,1.99,5.92,5.96,.02,7.45,.02,14.9,0,22.35-.01,3.94-2,5.89-5.98,5.89-13.67,.01-27.33,.01-41,0-3.95,0-5.95-2-5.95-5.93-.02-8.25,0-16.51,0-24.76,0-2.53,.51-3.2,3.06-3.62,2.65-.43,4.2-1.98,4.9-4.46,4.07-14.47,8.15-28.94,12.16-43.43,1.68-6.07-2.02-10.92-8.34-10.87-6.49,.06-12.67-.89-18.4-4.16C5.4,49.62-.51,37.35,1.63,25.78,3.96,13.16,13.62,3.64,25.96,1.89c1.79-.25,3.63-.36,5.44-.36,19.62-.03,39.23-.02,58.85-.01,5.59,0,8.21,2.2,9.25,7.95,.58,0,1.2,0,1.82,0,6.11,0,12.22-.01,18.33,0,5.95,.01,8.96,3.06,8.97,9.03,0,1.34,0,2.67,0,4.21,.63,.03,1.19,.07,1.75,.07,3.81,0,7.61,0,11.42,0,3.3,0,5.8,1.42,7.29,4.36,.44,.88,1.01,.94,1.79,.93,3.81-.01,7.61,.03,11.42-.02,1.57-.02,2.84,.36,3.62,1.82v1.61ZM27.64,123.55v24.24h42.65v-24.24c-.81,0-1.49,0-2.18,0-6.27-.06-9.72-4.59-8.03-10.67,5.15-18.5,10.33-37,15.51-55.49,.6-2.16,1.31-2.68,3.55-2.69,3.7-.01,7.4,0,11.09,0,3.34,0,4.17-.83,4.17-4.18,0-13.24,0-26.48,0-39.71,0-3.53-.81-4.34-4.38-4.34-19.46,0-38.91,0-58.37,.01-1.55,0-3.11,.09-4.65,.27C10.83,8.63,1.1,27.29,8.98,41.54c4.89,8.85,12.68,13.07,22.71,13.14,11.47,.07,22.94,.02,34.41,.02,.48,0,.97-.03,1.45,.03,1.51,.16,2.48,1.12,2.51,2.44,.03,1.31-.91,2.32-2.41,2.53-.47,.07-.96,.04-1.44,.04-6.32,0-12.65,0-18.97,0-.55,0-1.1,.05-1.9,.09,3.09,4.26,3.22,8.62,1.83,13.23-1.63,5.43-3.1,10.91-4.63,16.37-2.73,9.72-5.46,19.43-8.2,29.2,6.02,0,12.13,0,18.23,0,.64,0,1.29-.03,1.93,.04,1.34,.14,2.37,1.23,2.26,2.47-.11,1.3-.8,2.21-2.19,2.37-.53,.06-1.07,.05-1.61,.05-7.82,0-15.65,0-23.47,0h-1.84ZM115.69,46.6v-1.82c0-6.11,0-12.22,0-18.33,0-.54-.03-1.08,.07-1.6,.26-1.25,1.07-2.01,2.35-2.01,1.34,0,2.22,.72,2.44,2.08,.09,.58,.08,1.18,.08,1.76,0,6.06,0,12.11,0,18.17v1.7c2.23-.11,3.02-1.09,3.03-3.6,.01-7.93,0-15.86,0-23.8,0-.75,0-1.5-.13-2.24-.25-1.52-1.18-2.3-2.81-2.4-.4,2.01,.78,5.12-2.57,5.13-3.38,0-2.16-3.13-2.58-5.1h-16.14V46.6h16.25Zm12.98-13.21c4.62,0,9.1,.05,13.57-.03,1.43-.02,2.37-.93,2.63-2.38,.33-1.83-1.08-3.21-3.42-3.23-3.85-.04-7.7-.02-11.55,0-.4,0-.8,.1-1.23,.16v5.48Zm-46.06,26.12c-.85,.28-2.35,.37-2.54,.91-1.15,3.31-2,6.73-2.98,10.19h5.52v-11.1Z"/><g><path class="d" d="M165.02,30.62c-3.86,4.27-12.55-1.42-16.76,2.49-1.51,1.4-1.76,2.7-3.81,3.52-1.84,.73-3.82,.55-5.77,.54-3.35,0-6.7,0-10.05,0-.68,0-1.25,.57-1.25,1.25,0,2.72,.52,6.29-.88,8.73-1.83,3.18-5.1,3.28-8.36,3.34-6.22,.12-12.44,0-18.66,0-.5,0-1.12,.38-1.21,.92-.94,5.75-4.78,7.33-10.12,7.05-.53-.03-1.08,.41-1.21,.92-.71,2.9-1.1,5.73-.7,8.72,.13,1,.98,2.66,.84,3.58-.49,3.26-3.8,2.69-6.08,2.69-6.47,.03-6.48,.6-8.21,6.85-2.17,7.83-4.36,15.65-6.55,23.48-.96,3.42-4.91,10.75-1.66,13.91,1.39,1.35,3.16,1.1,4.93,1.26,5.85,.53,4.67,6.91,4.68,11.23,0,3.73,0,7.45,0,11.18,0,1.73,.37,3.99-.14,5.66-1.04,3.36-3.46,3.58-6.56,3.64-8.13,.17-16.28,0-24.41,0-4.23,0-8.46,.09-12.69,0-2.41-.05-5.23,.05-6.4-2.68-.79-1.83-.26-4.81-.26-6.76,0-3.81,0-7.62,0-11.43,0-3.53-1.19-9.23,2.15-10.98,1.66-.87,3.21-.98,4.46-2.62,1.58-2.07,1.96-5,2.64-7.43,2.3-8.18,4.6-16.36,6.89-24.54,1.57-5.6,4.99-12.63,4.31-18.53-.42-3.67-2.95-6.56-6.47-7.61-2.78-.83-5.81-.41-8.68-.68-4.62-.45-9.16-1.75-13.15-4.16C3.52,46.67-.95,30.71,5.61,17.9,9.03,11.22,15.07,6.1,22.29,3.96c8.33-2.46,18.16-1.19,26.77-1.2,9.48,0,18.96,0,28.44,0,4.43,0,8.95-.27,13.37,.02s6.51,2.68,7.43,7.01c.11,.53,.68,.92,1.21,.92,6.41,0,12.84-.17,19.24,0,3.25,.09,6.22,.38,7.83,3.64,1.21,2.44,.8,5.71,.8,8.36,0,.7,.57,1.22,1.25,1.25,3.75,.16,7.51-.01,11.27,.08,2.02,.05,3.69-.01,5.49,1.07,1.47,.89,1.9,2.38,3.2,3.32,2.62,1.89,16.07-.92,16.07,3.06,0,1.61,2.5,1.61,2.5,0,0-8.5-12.79-2.57-16.99-5.4-2.57-1.73-3.22-3.84-6.67-4.42-4.79-.82-10.01,0-14.87-.21l1.25,1.25c0-6.12-.14-12.72-7.35-14.23-4.4-.92-9.39-.27-13.87-.27-1.93,0-6.21,.75-7.78-.17-.93-.55-1.48-3.28-2.28-4.34-1.4-1.86-3.39-2.83-5.64-3.23-5.25-.92-11.12-.21-16.44-.21-12.1,0-24.19,0-36.29,0-9.17,0-18.15-.41-26.17,4.71C7.7,9.03,3.09,15.45,1.06,22.69-3.53,39.1,7.27,56.08,23.63,59.95c4.46,1.06,10.81-.24,14.73,1.96,6.19,3.48,2.11,11.79,.69,16.89-1.58,5.67-3.16,11.33-4.75,17s-2.5,12.63-5.04,17.93c-1.96,4.08-3.53,2.46-6.26,4.27-.68,.45-1.08,.94-1.42,1.68-.55,1.2-.33,3.15-.34,4.36-.02,3.17,0,6.35,0,9.52,0,4.76-.75,10.23,.13,14.9,.49,2.58,1.85,4.47,4.41,5.26,4.29,1.34,9.94,.35,14.39,.35,6.51,0,13.02,0,19.52,0,5.83,0,15.53,2.1,16.89-5.74,.9-5.16,.12-11.06,.12-16.31,0-3.54,.93-8.59-1.11-11.79-1.39-2.18-3.2-2.2-5.46-2.83-5.68-1.58-3.61-4.4-2.53-8.29,.87-3.13,1.75-6.26,2.62-9.39,1.9-6.8,3.27-14.07,5.76-20.66,.78-2.07,.58-1.78,2.6-2.17,1.4-.27,3.4-.03,4.82-.02s3.1,.27,4.43-.45c2.92-1.58,1.71-4.5,1.17-7.03-.32-1.51-.49-3.08-.45-4.62,.09-3.61-.15-3.16,2.05-3.76,1.51-.41,3.06-.25,4.58-.89s2.68-1.54,3.61-2.85c.59-.82,1.05-3.26,1.64-3.82,1.59-1.48,6.35-.47,8.39-.47,3.4,0,6.82,.06,10.22,0,9.44-.17,10.82-6.36,10.81-14.57l-1.25,1.25c5.67,0,14.4,1.84,19.2-2.06,2.05-1.67,1.56-2.55,4.82-3.25,2.31-.5,5.25,0,7.61-.01,2.69,0,4.64,.13,6.53-1.96,1.08-1.19-.69-2.96-1.77-1.77Z"/><path class="d" d="M26.39,123.55v24.24c0,.68,.57,1.25,1.25,1.25h42.65c.68,0,1.25-.57,1.25-1.25v-24.24c0-.67-.57-1.25-1.25-1.25-3.2,0-6.93-.07-8.65-3.32-1.61-3.04-.13-6.57,.72-9.6,2.13-7.66,4.27-15.31,6.41-22.96,1.78-6.38,3.57-12.76,5.35-19.13,.86-3.07,1.29-8.53,3.85-10.45,2.88-2.17,8.71-.68,12.27-.89,2.03-.12,3.95-.29,4.94-2.3s.49-4.99,.49-7.1c0-3.97,0-7.94,0-11.91,0-7.28,.06-14.56,0-21.84-.02-2.58,.36-5.77-2.35-7.09-1.53-.75-3.59-.47-5.23-.49-3.89-.03-7.78,0-11.67,0-7.13,0-14.27,0-21.4,0s-14.27-.03-21.4,.01c-4.78,.03-9.38,.25-13.81,2.26C4.01,14.65,.4,35.51,12.07,47.97c8.31,8.87,19.91,7.99,31.09,8,3.82,0,7.65,0,11.47,0,1.54,0,10.72-.93,11.47-.01,2.86,3.5-2.62,2.54-3.69,2.54-1.9,0-3.79,0-5.69,0-3.79,0-7.6-.12-11.38,.09-.9,.05-1.62,1.04-1.08,1.88,3.52,5.45,2.31,10.1,.64,15.89-1.31,4.54-2.54,9.1-3.82,13.65-2.64,9.43-5.3,18.86-7.94,28.29-.22,.78,.4,1.58,1.21,1.58,3.64,0,7.27,0,10.91,0,1.53,0,4-.49,5.49,0,1.94-.6,2.69,.21,2.22,2.43-.98,0-1.96,0-2.93,0-7.46,0-14.92,0-22.38,0-1.61,0-1.61,2.5,0,2.5,6.48,0,12.97,0,19.45,0,2.96,0,8.96,1.35,10.56-2.18,1.19-2.62-.72-4.66-3.15-5.21-2.79-.62-6.39-.04-9.25-.04-3.64,0-7.27,0-10.91,0l1.21,1.58c3.16-11.25,6.34-22.49,9.47-33.75,2.43-8.74,6.83-17.62,1.41-26.01l-1.08,1.88c6.3-.35,12.66-.05,18.97-.09,2.73-.02,7.04,.09,7-3.82-.03-3.04-2.81-3.57-5.21-3.72-6.96-.41-14.05,.02-21.03,.02-12.36,0-25.63,1.35-33.54-10.15-6.15-8.94-5.04-20.88,2.47-28.71,9.02-9.4,23.37-6.89,35.17-6.9,6.49,0,12.97,0,19.46,0,3.89,0,7.78,0,11.67,0,1.3,0,2.59,0,3.89,0,1.65,0,6.32-.81,7.69,.14,2.35,1.62,1.27,6.45,1.27,8.91,0,3.31,0,6.62,0,9.93,0,3.64,0,7.28,0,10.92,0,3.97,.87,9.05,0,12.91s-3.08,2.93-6.62,2.93c-2.57,0-6.05-.53-8.57,.08-3.87,.93-3.96,4.88-4.92,8.32-4.37,15.63-8.75,31.25-13.1,46.88-1.14,4.1-2.68,8.56,.09,12.38,2.44,3.37,6.43,3.7,10.26,3.7l-1.25-1.25v24.24l1.25-1.25H27.64l1.25,1.25v-24.24c0-1.61-2.5-1.61-2.5,0Z"/><path class="d" d="M116.94,46.6c0-3.05,0-6.1,0-9.15,0-1.83,0-3.67,0-5.5,0-.46-.31-5.24,0-5.5l2.44,.22c0,1.21,0,2.42,0,3.63,0,1.82,0,3.63,0,5.45,0,3.6,0,7.19,0,10.79,0,.61,.58,1.34,1.25,1.25,6.82-.9,4.29-10.92,4.29-15.75s.85-10.46-.13-15.13c-.45-2.14-1.56-3.2-3.72-3.61-.86-.16-1.5,.35-1.58,1.21-.14,1.4,.46,1.89-1.32,1.9s-1.17-.38-1.33-1.87c-.07-.67-.51-1.25-1.25-1.25h-16.14c-.68,0-1.25,.57-1.25,1.25V46.6c0,.68,.57,1.25,1.25,1.25h16.25c1.61,0,1.61-2.5,0-2.5h-16.25l1.25,1.25V14.54l-1.25,1.25h16.14l-1.25-1.25c.32,2.84-.12,6.35,3.83,6.35s3.54-3.52,3.82-6.38l-1.58,1.21c3.65,.69,2.02,11.83,2.02,14.34,0,2.29,1.42,14.81-1.79,15.24l1.25,1.25c0-6.61,.21-13.26,0-19.87-.08-2.51-.81-5.27-3.93-5.07-3.64,.23-3.49,3.93-3.51,6.68-.05,6.1,0,12.21,0,18.32,0,1.61,2.5,1.61,2.5,0Z"/><path class="d" d="M128.67,34.65c4.49,0,9.47,.63,13.9-.07,2.22-.35,3.83-2.14,3.56-4.5s-2.52-3.37-4.69-3.56c-4.14-.36-9.01-.45-13.11,.2-.53,.08-.92,.7-.92,1.21v5.48c0,1.61,2.5,1.61,2.5,0v-5.48l-.92,1.21c1.96-.31,4.04-.12,6.03-.13,1.28,0,2.57,0,3.85,0,1.8,0,2.67-.78,2.35,1.58-.29,2.14-.71,1.57-2.66,1.58-1.02,0-2.05,0-3.07,0-2.28,0-4.56-.01-6.84-.01-1.61,0-1.61,2.5,0,2.5Z"/><path class="d" d="M82.27,58.31c-2.19,.6-3.06,.66-3.8,2.93-.97,2.98-1.75,6.02-2.59,9.04-.22,.78,.4,1.58,1.21,1.58h5.52c.68,0,1.25-.57,1.25-1.25v-11.1c0-1.61-2.5-1.61-2.5,0v11.1l1.25-1.25h-5.52l1.21,1.58c.59-2.11,1.15-4.23,1.76-6.33,.23-.79,.42-2.48,.96-3.1s1.17-.6,1.93-.8c1.55-.42,.89-2.83-.66-2.41Z"/></g></g><g><path class="d" d="M28.88,33.1c-3.8,0-7.61,.09-11.41-.07-.91-.04-2.05-.71-2.58-1.45-.37-.52-.17-1.91,.3-2.45,.54-.62,1.65-.96,2.53-1,2.46-.13,4.93-.05,7.39-.05,4.82,0,9.64,0,14.46,0,.53,0,1.07,0,1.6,.08,1.42,.2,2.24,1.02,2.22,2.47-.01,1.47-.92,2.3-2.31,2.4-1.6,.12-3.21,.05-4.82,.05-2.46,0-4.93,0-7.39,0Z"/><path class="d" d="M28.88,31.85c-1.9,0-3.8,.03-5.71,.03-.7,0-6.91,.73-3.61-2.55,.38-.38,4.98,.01,5.54,.02,1.81,0,3.62,0,5.42,0s3.62,0,5.42,0c1.15,0,6.46-.74,3.53,2.53-.87,.96-9.41-.01-10.61-.02-1.61,0-1.61,2.5,0,2.5,3.88,0,8.76,.82,12.54-.1,1.82-.44,3.11-1.44,3.2-3.44,.3-6.16-10.7-3.97-14.09-3.97-4.21,0-9-.66-13.14,.09-1.84,.34-3.4,1.02-3.82,2.97-1.42,6.65,12.31,4.46,15.3,4.45,1.61,0,1.61-2.5,0-2.5Z"/></g><g><path class="d" d="M29.13,36.05c1.82,0,3.64,0,5.46,0,2.32,.01,3.59,.93,3.55,2.56-.03,1.58-1.26,2.47-3.47,2.48-3.74,0-7.49,0-11.23,0-2.35,0-3.56-.89-3.53-2.56,.03-1.64,1.23-2.48,3.61-2.48,1.87,0,3.74,0,5.62,0Z"/><path class="d" d="M29.13,37.3c.91,0,1.82,0,2.73,0,1.73,0,2.71-.63,2.77,1.28s-.53,1.27-2.07,1.28c-1.17,0-2.34,0-3.51,0-.95,0-4.97,.58-5.62,0l.08-2.55c.7,0,1.4,0,2.11,0,1.17,0,2.34,0,3.51,0,1.61,0,1.61-2.5,0-2.5-3.07,0-10.42-1.26-10.48,3.73s7.34,3.82,10.4,3.82,10.28,1.21,10.34-3.74-7.24-3.82-10.26-3.82c-1.61,0-1.61,2.5,0,2.5Z"/></g><g><path class="d" d="M28.97,25.09c-2.09,0-4.17,.03-6.26,0-1.73-.03-2.79-.98-2.82-2.42-.03-1.43,1.04-2.47,2.74-2.49,4.28-.04,8.56-.04,12.84,0,1.61,.02,2.65,1.03,2.68,2.4,.03,1.42-1.08,2.47-2.75,2.5-2.14,.04-4.28,0-6.42,.01Z"/><path class="d" d="M28.97,23.84c-1.38,0-4.49,.66-5.63,0-.98,.17-.96-.23,.05-1.22,.1-1.01,.56-1.42,1.38-1.22,.84-.3,2.73-.01,3.57-.01,.98,0,5.03-.59,5.7,.02l.07,2.43c-.64,0-1.28,0-1.93,0-1.07,0-2.14,0-3.21,0-1.61,0-1.61,2.5,0,2.5,3.07,0,10.46,1.31,10.42-3.76s-7.32-3.68-10.34-3.68-10.45-1.3-10.4,3.77,7.26,3.69,10.33,3.68c1.61,0,1.61-2.5,0-2.5Z"/></g></g></g></g></svg>