<?xml version="1.0" encoding="UTF-8"?><svg xmlns="http://www.w3.org/2000/svg" viewBox="0 0 38.66 38.91"><defs><style>.e{fill:#fae013;}</style></defs><g id="a"/><g id="b"><g id="c"><g id="d"><g><path class="e" d="M21.57,25.6c-2.23-2.23-4.5-4.42-6.67-6.7-.93-.97-1.89-1.98-2.62-3.11-.03-.05-.24-.48-.29-.49,1.5,.35-1.14,1.12,.11,.61,.54-.22,1.12-.81,1.55-1.2,.38-.34,.74-.71,1.07-1.11,.15-.18,1.2-1.33,1.12-1.51l-.79,.18c-.07-.04-.03-.01,.13,.07,.08,.12,.42,.26,.53,.34,.61,.42,1.18,.91,1.73,1.4,2.36,2.08,4.52,4.39,6.74,6.61,3.78,3.77,7.44,7.63,10.23,12.21,.49,.81,.98,1.64,1.39,2.49,.21,.42,.47,1.46,.59,1.61,.14,.18-.19,.2,.01,.05,.16-.12,0,.01,.29-.34-.16,.19,.17-.18,.21-.04,0,0-.27,0-.29,0-.27-.11-1.21-.43-1.7-.68-5.08-2.56-9.35-6.38-13.35-10.37-1.03-1.02-2.62,.57-1.59,1.59,4.16,4.15,8.68,8.21,14,10.82,1.14,.56,3.07,1.53,4.18,.37s.08-3.16-.51-4.33c-2.74-5.43-6.9-9.99-11.17-14.26-2.58-2.58-5.08-5.3-7.85-7.67-.84-.72-1.86-1.73-2.97-2.03-1.38-.37-1.89,1.16-2.61,2.02-.49,.59-1.05,1.11-1.67,1.57-.54,.4-1.35,.72-1.55,1.42-.32,1.11,.88,2.36,1.5,3.13,2.59,3.22,5.74,6.04,8.66,8.96,1.02,1.03,2.62-.56,1.59-1.59Z"/><path class="e" d="M1.78,4.95c.91,.91,1.98,2.03,2.19,3.35,.03,.22,.02,.59,0,.87,0,.03-.03,.23,0,.05,0,.07-.02,.15-.03,.22-.02,.14-.04,.27-.06,.41-.1,.72-.11,1.42,.29,2.06,.76,1.22,2.42,1.54,3.75,1.4,1.53-.16,3.08-.79,4.07-2.01,2.06-2.55,1.42-6.4-.53-8.81C9.7,.33,6.79-.25,4.17,.09c-.84,.11-1.82,.23-2.56,.68C.8,1.27-.29,1.79,.07,2.92c.26,.82,1.12,1.45,1.71,2.03,1.03,1.02,2.62-.57,1.59-1.59-.27-.27-.55-.53-.82-.8-.12-.12-.24-.24-.35-.37-.05-.05-.05-.06-.01-.01,.03,.04,.03,.04,0,0-.03-.06-.03-.05,0,.03,.07,.16,.08,.33,.03,.52l-.29,.5c-.1,.08,.21-.09,.25-.12,.14-.09,.28-.19,.42-.28,.08-.05,.18-.1,.25-.16,.14-.13-.31,.1-.15,.06,.19-.05,.38-.13,.58-.18,.33-.09,.67-.14,1-.2,.22-.04-.17,.01,.06,0,.11-.01,.22-.02,.33-.03,.22-.02,.43-.03,.65-.04,.23,0,.46,0,.69,0,.13,0,.26,.01,.38,.03,.06,0,.11,.01,.17,.02,.19,.02-.15-.03,.03,0,.51,.08,1.02,.2,1.5,.41-.13-.05,.13,.06,.16,.08,.11,.05,.21,.11,.32,.17,.23,.13,.45,.29,.58,.4,.45,.39,.72,.73,1.01,1.22,1.02,1.74,1.26,4.26-.29,5.63-.7,.62-1.76,.9-2.71,.87-.06,0-.32-.02-.25-.01s-.18-.03-.23-.05c-.12-.03-.23-.06-.35-.1,.19,.07-.06-.04-.13-.07-.04-.02-.08-.05-.12-.07,.05,.03,.13,.15,.02,0-.03-.03-.06-.06-.09-.09-.08-.1,.03,.04,.03,.04-.04,.03-.03-.2-.02-.03,0,.11,.01,.01,0-.03-.03-.07,0-.19,0,.04,0-.06,0-.12,0-.18,0-.06,.03-.34,.01-.23-.02,.14,0-.03,0-.05,.01-.09,.03-.18,.04-.26,.05-.35,.11-.7,.13-1.05,.04-.79-.13-1.56-.44-2.28-.54-1.25-1.47-2.34-2.42-3.29-1.03-1.02-2.62,.57-1.59,1.59Z"/><path class="e" d="M14.94,22.54l-.97-.97c-.33-.33-.67-.61-.67-1.03,0-.52,.63-.99,1.03-1.39l4.72-4.72c.48-.48,.92-1.07,1.56-.82,.34,.13,.68,.58,.95,.85s.72,.6,.9,.97c.31,.63-.25,1.07-.73,1.55l-2.28,2.28-2.65,2.65c-.56,.56-1.14,1.29-1.86,.63-1.06-.98-2.65,.6-1.59,1.59,1.4,1.3,3.31,1.11,4.61-.2l2.25-2.25,2.8-2.8c.73-.73,1.54-1.42,1.73-2.5s-.15-2.06-.9-2.82c-.4-.42-.82-.82-1.23-1.23-1.31-1.3-3.26-1.34-4.59-.04-1.63,1.59-3.22,3.22-4.83,4.83-.8,.8-1.83,1.6-2.05,2.77s.17,2.17,.97,2.98c.41,.42,.83,.83,1.25,1.25,1.03,1.03,2.62-.57,1.59-1.59Z"/></g></g></g></g></svg>