<?xml version="1.0" encoding="UTF-8"?><svg xmlns="http://www.w3.org/2000/svg" viewBox="0 0 39.05 46.37"><defs><style>.e{fill:#fae013;}</style></defs><g id="a"/><g id="b"><g id="c"><g id="d"><g><path class="e" d="M18.36,28.08h-1.84c-.71,0-1.45-.07-2.16,0h-.06s-5.19-1.04,.13,.02c-.2-.04,.1,.07,.15,.11-.15-.13,.05,.11,.08,.17-.06-.17,.02,.06,0,.06v-.05c.03-.24,0-.49,0-.73v-3.69c0-.1,0-.19,0-.29,0-.01,0-.05,0-.06h0c-.03,.15-.03,.17,0,.05-.02,.09-.06,.16-.13,.22,.06-.06,.14-.08-.05,.03l-.12,.05c.12-.03,.1-.03-.06,0h.03c.09,.02,.21,0,.31,0h3.54s.18,.01,.18,0c0,0,1.3,.26-.13-.02,.21,.04-.05-.05-.1-.07l-.05-.04c.08,.09,.08,.07-.03-.05-.05-.15-.06-.17-.03-.05-.02-.14-.02-.18-.02-.13,.01,0,0,.48,0,.51v4.06c0,.06-.02,.18,0,.24,.01,.04,.07-.24,0-.04,.02-.06,.23-.3,.08-.17,.06-.07,.14-.11,.22-.13-.12,.03-.1,.03,.06,0-.59,.03-1.15,.49-1.12,1.12,.03,.58,.5,1.16,1.12,1.12,1.06-.06,1.86-.83,1.89-1.91,0-.25,0-.51,0-.76v-2.91c0-1,.12-2.1-.87-2.73-.72-.46-1.8-.3-2.61-.3s-1.62-.01-2.43,0c-.9,.02-1.72,.6-1.89,1.51-.05,.29-.04,.56-.04,.85v2.82c0,.75-.14,1.74,.22,2.43s1.1,1.01,1.87,1.01h3.86c.59,0,1.15-.52,1.12-1.12s-.49-1.12-1.12-1.12Z"/><path class="e" d="M24.76,28.08h-1.84c-.71,0-1.45-.07-2.16,0h-.06s-5.19-1.04,.13,.02c-.2-.04,.1,.07,.15,.11-.15-.13,.05,.11,.08,.17-.06-.17,.02,.06,0,.06v-.05c.03-.24,0-.49,0-.73v-3.69c0-.1,0-.19,0-.29,0-.01,0-.05,0-.06h0c-.03,.15-.03,.17,0,.05-.02,.09-.06,.16-.13,.22,.06-.06,.14-.08-.05,.03l-.12,.05c.12-.03,.1-.03-.06,0h.03c.09,.02,.21,0,.31,0h3.54s.18,.01,.18,0c0,0,1.3,.26-.13-.02,.21,.04-.05-.05-.1-.07l-.05-.04c.08,.09,.08,.07-.03-.05-.05-.15-.06-.17-.03-.05-.02-.14-.02-.18-.02-.13,.01,0,0,.48,0,.51v4.06c0,.06-.02,.18,0,.24,.01,.04,.07-.24,0-.04,.02-.06,.23-.3,.08-.17,.06-.07,.14-.11,.22-.13-.12,.03-.1,.03,.06,0-.59,.03-1.15,.49-1.12,1.12,.03,.58,.5,1.16,1.12,1.12,1.06-.06,1.86-.83,1.89-1.91,0-.25,0-.51,0-.76v-2.91c0-1,.12-2.1-.87-2.73-.72-.46-1.8-.3-2.61-.3s-1.62-.01-2.43,0c-.9,.02-1.72,.6-1.89,1.51-.05,.29-.04,.56-.04,.85v2.82c0,.75-.14,1.74,.22,2.43s1.1,1.01,1.87,1.01h3.86c.59,0,1.15-.52,1.12-1.12s-.49-1.12-1.12-1.12Z"/><path class="e" d="M18.36,34.48h-1.84c-.71,0-1.45-.07-2.16,0h-.06s-5.19-1.04,.13,.02c-.2-.04,.1,.07,.15,.11-.15-.13,.05,.11,.08,.17-.06-.17,.02,.06,0,.06v-.05c.03-.24,0-.49,0-.73v-3.69c0-.1,0-.19,0-.29,0-.01,0-.05,0-.06h0c-.03,.15-.03,.17,0,.05-.02,.09-.06,.16-.13,.22,.06-.06,.14-.08-.05,.03l-.12,.05c.12-.03,.1-.03-.06,0h.03c.09,.02,.21,0,.31,0h3.54s.18,.01,.18,0c0,0,1.3,.26-.13-.02,.21,.04-.05-.05-.1-.07l-.05-.04c.08,.09,.08,.07-.03-.05-.05-.15-.06-.17-.03-.05-.02-.14-.02-.18-.02-.13,.01,0,0,.48,0,.51v4.06c0,.06-.02,.18,0,.24,.01,.04,.07-.24,0-.04,.02-.06,.23-.3,.08-.17,.06-.07,.14-.11,.22-.13-.12,.03-.1,.03,.06,0-.59,.03-1.15,.49-1.12,1.12,.03,.58,.5,1.16,1.12,1.12,1.06-.06,1.86-.83,1.89-1.91,0-.25,0-.51,0-.76v-2.91c0-1,.12-2.1-.87-2.73-.72-.46-1.8-.3-2.61-.3s-1.62-.01-2.43,0c-.9,.02-1.72,.6-1.89,1.51-.05,.29-.04,.56-.04,.85v2.82c0,.75-.14,1.74,.22,2.43s1.1,1.01,1.87,1.01h3.86c.59,0,1.15-.52,1.12-1.12s-.49-1.12-1.12-1.12Z"/><path class="e" d="M24.76,34.48h-1.84c-.71,0-1.45-.07-2.16,0h-.06s-5.19-1.04,.13,.02c-.2-.04,.1,.07,.15,.11-.15-.13,.05,.11,.08,.17-.06-.17,.02,.06,0,.06v-.05c.03-.24,0-.49,0-.73v-3.69c0-.1,0-.19,0-.29,0-.01,0-.05,0-.06h0c-.03,.15-.03,.17,0,.05-.02,.09-.06,.16-.13,.22,.06-.06,.14-.08-.05,.03l-.12,.05c.12-.03,.1-.03-.06,0h.03c.09,.02,.21,0,.31,0h3.54s.18,.01,.18,0c0,0,1.3,.26-.13-.02,.21,.04-.05-.05-.1-.07l-.05-.04c.08,.09,.08,.07-.03-.05-.05-.15-.06-.17-.03-.05-.02-.14-.02-.18-.02-.13,.01,0,0,.48,0,.51v4.06c0,.06-.02,.18,0,.24,.01,.04,.07-.24,0-.04,.02-.06,.23-.3,.08-.17,.06-.07,.14-.11,.22-.13-.12,.03-.1,.03,.06,0-.59,.03-1.15,.49-1.12,1.12,.03,.58,.5,1.16,1.12,1.12,1.06-.06,1.86-.83,1.89-1.91,0-.25,0-.51,0-.76v-2.91c0-1,.12-2.1-.87-2.73-.72-.46-1.8-.3-2.61-.3s-1.62-.01-2.43,0c-.9,.02-1.72,.6-1.89,1.51-.05,.29-.04,.56-.04,.85v2.82c0,.75-.14,1.74,.22,2.43s1.1,1.01,1.87,1.01h3.86c.59,0,1.15-.52,1.12-1.12s-.49-1.12-1.12-1.12Z"/></g><path class="e" d="M37.99,19.98c-5.01-6.12-9.86-12.44-15.07-18.4-1.82-2.08-4.94-2.12-6.77-.03-.93,1.06-1.79,2.18-2.68,3.27L3.43,17.09c-.94,1.15-2.15,2.32-2.89,3.63-.89,1.59-.65,3.63,.53,5.01s2.76,1.51,4.45,1.51l-1.12-1.12v13.29c0,1.98-.26,4.11,1.27,5.65,1.44,1.44,3.32,1.27,5.16,1.27h15.82c1.4,0,2.89,.15,4.28-.06,1.89-.28,3.39-1.78,3.66-3.66,.08-.57,.06-1.16,.06-1.74v-14.76l-1.12,1.12c1.75,0,3.36-.16,4.54-1.62,1.27-1.57,1.3-3.79,.1-5.41-.86-1.15-2.81-.03-1.94,1.14,.72,.97,.84,2.21-.12,3.09-.72,.67-1.67,.55-2.58,.55-.61,0-1.12,.52-1.12,1.12v12.4c0,1.27,.41,3.58-.4,4.7-.88,1.21-2.88,.86-4.19,.86H12.8c-1.33,0-2.69,.08-4.02,0-2.35-.14-2.12-2.35-2.12-4.04v-13.92c0-.61-.52-1.12-1.12-1.12-1.23,0-2.56,.04-3.12-1.31-.34-.81-.12-1.6,.38-2.27,.82-1.09,1.73-2.12,2.6-3.17L14.75,6.8c.95-1.16,1.88-2.32,2.84-3.47,1.15-1.38,2.69-1.42,3.86-.02,2.55,3.04,5.03,6.14,7.54,9.21l7.41,9.05c.92,1.12,2.5-.48,1.59-1.59Z"/></g></g></g></svg>