<?xml version="1.0" encoding="UTF-8"?><svg xmlns="http://www.w3.org/2000/svg" viewBox="0 0 29.34 42.36"><defs><style>.e{fill:#fae013;}</style></defs><g id="a"/><g id="b"><g id="c"><g id="d"><g><path class="e" d="M23.97,40.06H6.99c-1.68,0-3.46,.07-4.35-1.73-.46-.92-.32-2.1-.32-3.11V15.43c0-3.26-.03-6.51,0-9.77,.02-1.97,1.33-3.36,3.32-3.38,1.89-.02,3.78,0,5.67,0,2.05,0,4.1,0,6.15,0,.14,0,.33-.03,.47,0-.31-.07,.62,.44,.78,.54,1.09,.7,2.07,1.56,3.02,2.44,1.88,1.76,4.21,3.93,5.16,6.39,.3,.77,.17,1.71,.17,2.55v13.42c0,3.1,.15,6.25,0,9.34-.09,1.75-1.35,3.03-3.1,3.11-1.44,.06-1.45,2.31,0,2.25,3.06-.12,5.31-2.45,5.35-5.51,.02-1.42,0-2.84,0-4.27v-15.28c0-1.54,.03-3.09,0-4.64-.03-1.85-1.12-3.41-2.22-4.83-1.87-2.43-4.11-4.67-6.6-6.47-.75-.54-1.66-1.2-2.61-1.29-.62-.06-1.28,0-1.9,0h-7.61C6.48,.03,4.33-.23,2.63,.82-.68,2.86,.07,7.28,.07,10.6,.07,19.3-.02,28.01,.07,36.71c.03,2.64,1.67,5.01,4.37,5.51,1.37,.25,2.88,.1,4.26,.1h15.27c1.45,0,1.45-2.25,0-2.25Z"/><g><path class="e" d="M6.98,19.78h0l-1.12,1.12H24.01l-1.12-1.12h0l1.12-1.12H5.86c-1.45,0-1.45,2.25,0,2.25H24.01c.61,0,1.12-.52,1.12-1.12h0c0-.61-.52-1.13-1.12-1.13H5.86c-.61,0-1.12,.52-1.12,1.12h0c0,1.45,2.25,1.45,2.25,0Z"/><path class="e" d="M6.98,24.9h0l-1.12,1.12H24.01l-1.12-1.12h0l1.12-1.12H5.86c-1.45,0-1.45,2.25,0,2.25H24.01c.61,0,1.12-.52,1.12-1.12h0c0-.61-.52-1.13-1.12-1.13H5.86c-.61,0-1.12,.52-1.12,1.12h0c0,1.45,2.25,1.45,2.25,0Z"/></g><g><path class="e" d="M6.98,24.43h0l-1.12,1.12H24.01l-1.12-1.12h0l1.12-1.12H5.86c-1.45,0-1.45,2.25,0,2.25H24.01c.61,0,1.12-.52,1.12-1.12h0c0-.61-.52-1.13-1.12-1.13H5.86c-.61,0-1.12,.52-1.12,1.12h0c0,1.45,2.25,1.45,2.25,0Z"/><path class="e" d="M6.98,29.55h0l-1.12,1.12H24.01l-1.12-1.12h0l1.12-1.12H5.86c-1.45,0-1.45,2.25,0,2.25H24.01c.61,0,1.12-.52,1.12-1.12h0c0-.61-.52-1.13-1.12-1.13H5.86c-.61,0-1.12,.52-1.12,1.12h0c0,1.45,2.25,1.45,2.25,0Z"/></g><path class="e" d="M17.35,14.75l8.03-.2c.69-.02,1.36-.1,1.96-.47,1.1-.68,1.66-1.98,1.46-3.25s-1.23-2.05-2.06-2.88L20.13,1.33c-.3-.3-.59-.6-.94-.83-1.06-.68-2.49-.62-3.5,.1-1.42,1-1.35,2.55-1.39,4.08l-.14,5.66c-.01,.45-.05,.9-.03,1.34,.08,1.74,1.5,3.03,3.22,3.06,1.45,.02,1.45-2.23,0-2.25-1.25-.02-.96-1.49-.94-2.33l.12-4.62,.05-1.83c0-.34-.02-.68,.11-.97,.2-.45,.9-.66,1.37-.31,.17,.13,.33,.32,.49,.48l6.01,6.01c.59,.59,1.22,1.15,1.77,1.77,.41,.46,.36,.95,0,1.31-.23,.24-.49,.27-.9,.28l-8.08,.2c-1.45,.04-1.45,2.29,0,2.25Z"/></g></g></g></g></svg>