<?xml version="1.0" encoding="UTF-8"?><svg xmlns="http://www.w3.org/2000/svg" viewBox="0 0 46.29 41.33"><defs><style>.e,.f{fill:#fae013;}.f{font-family:RoundsBlack, Rounds Black;font-size:12px;}</style></defs><g id="a"/><g id="b"><g id="c"><g id="d"><path class="e" d="M40.89,39H16.67c-3.6,0-7.21,.02-10.81,0-2-.01-3.51-1.18-3.58-3.29-.06-1.79,0-3.6,0-5.39v-7.93c0-1.55-.34-3.69,.7-4.99s2.4-1.16,3.79-1.16H39.83c1.66,0,3.37,.24,4.02,2.09,.48,1.37,.18,3.26,.18,4.67,0,4.26,.18,8.56,0,12.82-.07,1.78-1.35,3.1-3.14,3.17-1.44,.06-1.45,2.31,0,2.25,3.3-.13,5.37-2.67,5.39-5.86,.01-2.22,0-4.43,0-6.65v-7.92c0-2.38-.33-4.65-2.58-6.03-1.37-.85-2.85-.79-4.38-.79H16.67c-3.69,0-7.38-.05-11.07,0-3.08,.04-5.46,2.29-5.57,5.39C-.03,21.08,.03,22.77,.03,24.46v8.4c0,1.87-.26,4,.71,5.68,2.05,3.55,6.81,2.72,10.27,2.72h29.88c1.45,0,1.45-2.25,0-2.25Z"/><g><path class="e" d="M10.16,16h0l1.12,1.12V1.12l-1.12,1.12h0l-1.12-1.12V17.12c0,1.45,2.25,1.45,2.25,0V1.12c0-.61-.52-1.12-1.12-1.12h0c-.61,0-1.12,.52-1.12,1.12V17.12c0,.61,.52,1.12,1.12,1.12h0c1.45,0,1.45-2.25,0-2.25Z"/><path class="e" d="M36.16,16h0l1.12,1.12V1.12l-1.12,1.12h0l-1.12-1.12V17.12c0,1.45,2.25,1.45,2.25,0V1.12c0-.61-.52-1.12-1.12-1.12h0c-.61,0-1.12,.52-1.12,1.12V17.12c0,.61,.52,1.12,1.12,1.12h0c1.45,0,1.45-2.25,0-2.25Z"/></g><text class="f" transform="translate(6.54 32.28)"><tspan x="0" y="0">MINT</tspan></text></g></g></g></svg>