<?xml version="1.0" encoding="UTF-8"?><svg xmlns="http://www.w3.org/2000/svg" viewBox="0 0 43.02 39.04"><defs><style>.e,.f{fill:#fae013;}.f{font-family:RoundsBlack, Rounds Black;font-size:11.01px;}</style></defs><g id="a"/><g id="b"><g id="c"><g id="d"><path class="e" d="M38.34,15.63H7.91c-1.99,0-5.45,.65-5.58-2.24-.08-1.76,0-3.54,0-5.3v-2.83c0-.62-.06-1.27,.24-1.84,.6-1.15,1.73-1.13,2.82-1.13H37.43c1.08,0,2.18,0,2.78,1.13,.3,.57,.24,1.22,.24,1.84v2.83c0,1.77,.09,3.56,0,5.33-.06,1.22-.83,2.14-2.1,2.21-1.44,.07-1.45,2.32,0,2.25,2.73-.14,4.33-2.2,4.35-4.82,.01-2.13,0-4.25,0-6.38s.2-4.1-1.5-5.58c-1.08-.94-2.37-1.07-3.72-1.07H12.9C10.12,.03,7.34-.04,4.57,.03,2.08,.1,.19,1.87,.08,4.38,.01,6.11,.08,7.85,.08,9.58s-.3,3.74,.24,5.36c.66,1.96,2.48,2.93,4.45,2.94,3.04,.03,6.08,0,9.12,0,7.98,0,15.97,.11,23.96,0,.16,0,.33,0,.49,0,1.45,0,1.45-2.25,0-2.25Z"/><path class="e" d="M39.96,36.72H5.91c-.72,0-1.45,.04-2.17,0-1.19-.07-1.18-1.13-1.11-2.16s.64-1.1,1.45-1.1H37.48c.76,0,1.55-.06,2.3,0,.55,.05,.84,.22,.97,.83,.16,.73,.16,2.34-.79,2.42-1.43,.13-1.44,2.38,0,2.25,2.65-.24,3.16-2.44,3.04-4.69-.1-1.85-1.46-3.01-3.26-3.06-2.21-.06-4.43,0-6.65,0-7.83,0-15.65,0-23.48,0-2.02,0-4.07-.08-6.09,0s-3.14,1.59-3.14,3.54c0,1.05-.05,2.07,.6,2.97,.59,.81,1.49,1.19,2.46,1.24,1.85,.09,3.73,0,5.59,0h11.53c6.34,0,12.7,.16,19.04,0,.11,0,.23,0,.34,0,1.45,0,1.45-2.25,0-2.25Z"/><path class="e" d="M21.39,29.8h0c.61,0,1.12-.52,1.12-1.12v-11.92c0-.61-.52-1.12-1.12-1.12h0c-.61,0-1.12,.52-1.12,1.12v11.92c0,1.45,2.25,1.45,2.25,0v-11.92l-1.13,1.12h0l-1.12-1.12v11.92l1.12-1.12h0c-1.45,0-1.45,2.25,0,2.25Z"/><path class="e" d="M25.93,16.42h0c-.43,.43-.43,1.16,0,1.59l9.64,9.64,1.37,1.37c.43,.43,1.16,.43,1.59,0h0c.43-.43,.43-1.16,0-1.59l-9.64-9.64-1.37-1.37c-1.03-1.03-2.62,.57-1.59,1.59l9.64,9.64,1.37,1.37v-1.59h1.59l-9.64-9.64-1.37-1.37v1.59h0c1.03-1.03-.57-2.62-1.59-1.59Z"/><path class="e" d="M4.25,29.01h0c.43,.43,1.16,.43,1.59,0l9.64-9.64,1.37-1.37c.43-.43,.43-1.16,0-1.59h0c-.43-.43-1.16-.43-1.59,0L5.62,26.05l-1.37,1.37c-1.03,1.03,.57,2.62,1.59,1.59l9.64-9.64,1.37-1.37h-1.59v-1.59L5.62,26.05l-1.37,1.37h1.59c-1.03-1.03-2.62,.57-1.59,1.59Z"/><text class="f" transform="translate(13.3 12.31)"><tspan x="0" y="0">uv</tspan></text></g></g></g></svg>