<?xml version="1.0" encoding="UTF-8"?>
<!DOCTYPE svg PUBLIC "-//W3C//DTD SVG 1.1//EN" "http://www.w3.org/Graphics/SVG/1.1/DTD/svg11.dtd">
<!-- Creator: CorelDRAW 2021.5 -->
<svg xmlns="http://www.w3.org/2000/svg" xml:space="preserve" width="35.6081mm" height="12.4126mm" version="1.1" style="shape-rendering:geometricPrecision; text-rendering:geometricPrecision; image-rendering:optimizeQuality; fill-rule:evenodd; clip-rule:evenodd"
viewBox="0 0 1768.87 616.61"
 xmlns:xlink="http://www.w3.org/1999/xlink"
 xmlns:xodm="http://www.corel.com/coreldraw/odm/2003">
 <defs>
  <style type="text/css">
   <![CDATA[
    .fil0 {fill:#2B2B2B;fill-rule:nonzero}
   ]]>
  </style>
 </defs>
 <g id="Слой_x0020_1">
  <metadata id="CorelCorpID_0Corel-Layer"/>
  <path class="fil0" d="M814 531.5c-83.51,-3.45 -113.7,-52.77 -111.33,-129.03 27.9,13.14 240.26,129.03 111.33,129.03 -14.32,-0.6 11.36,0 0,0zm304.73 -269.35c80.87,0 160.73,2.52 240.7,12.62 38.12,4.82 140.54,2 162.78,33.35 -65.99,26.66 -139.63,26.5 -204.97,62.11 -28.14,15.34 -66.52,36.87 -68.48,73.48 -2.91,54.44 44.3,33.51 78.2,25.39 72.85,-17.45 149.15,-25.81 223.19,-37.59 56.68,-9.03 191.88,-1.63 215.33,-70.31 23.54,-68.96 -81.58,-124.9 -126.52,-158.05 -72.84,-53.75 -145.1,-108.57 -218.41,-161.62 -20.19,-14.61 -58.71,-49.92 -87.15,-39.69 -39.71,14.27 -21.43,51.12 -3.96,76.23 11.29,16.21 162.96,162.7 163.28,162.56 -12.23,5.48 -85.57,-17.44 -97.57,-19.74 -49,-9.37 -100.07,-14.59 -150.71,-18.45 -132.44,-10.06 -270.95,-22.36 -402.99,0.01 -61.7,10.45 -104.89,38.68 -157.39,68.43 -49.85,28.25 -99.19,1.58 -155.83,-5.07 -117.05,-13.69 -237.21,4.93 -346.41,48.04 -74.56,29.42 -241.33,120.94 -159.95,224.63 21.24,27.08 57.53,42.74 51.33,3.14 -4.2,-26.86 -24.52,-28.87 -16.4,-61.27 5.84,-23.33 25.64,-37.52 44.18,-49.96 92.18,-61.79 230.66,-91.15 338.89,-92.73 41.25,-0.6 123.79,5.43 159.67,28.01 31.89,20.06 15.56,54.78 26.04,96.05 27.16,106.99 161.07,193.01 270.28,137.49 158.23,-80.44 -55.48,-236.46 -138.58,-270.86 70.4,-80.46 268.16,-66.22 361.48,-66.22z"/>
 </g>
</svg>
