<?xml version="1.0" encoding="UTF-8"?><svg xmlns="http://www.w3.org/2000/svg" viewBox="0 0 767.05 274.37"><g id="a"/><g id="b"><g id="c"><path d="M40.9,205.5c-1.16-1.67-2.15-3.35-3.11-5.14-.53-.99-.69-2.83,.06,.18-.18-.72-.48-1.42-.69-2.13-.28-.96-.53-1.92-.74-2.9-.13-.59-.56-3.73-.3-1.31,.25,2.29,.02-.26,.01-.6-.04-1.52-.11-3.02-.06-4.55,.02-.75,.15-1.53,.13-2.28-.06-2.69-.65,2.87-.08,.24,.38-1.75,.68-3.5,1.16-5.23,.54-1.96,1.18-3.91,1.96-5.79-.3,.71-1.54,3.01,.07,.15,.66-1.17,1.26-2.37,1.95-3.52,.96-1.61,1.99-3.16,3.07-4.7,1.99-2.84,.59-.71,.12-.17,.7-.81,1.38-1.63,2.1-2.43,2.89-3.22,6.06-6.1,9.32-8.91,2.6-2.24,.77-.67,.17-.21,.86-.66,1.74-1.3,2.62-1.92,1.54-1.1,3.11-2.16,4.7-3.2,4-2.6,8.13-5,12.34-7.23,3.56-1.88,7.19-3.62,10.85-5.28,3.25-1.47,1.17-.51,.45-.22,1.06-.44,2.13-.86,3.2-1.28,2.41-.94,4.84-1.83,7.28-2.66,8.44-2.9,17.08-5.21,25.83-6.96,2.26-.45,4.54-.87,6.81-1.26,1.14-.19,2.28-.37,3.42-.55,.15-.02,2.99-.44,1.04-.17-2.14,.3,1.44-.17,1.91-.23,1.15-.13,2.3-.26,3.45-.38,2.59-.26,5.19-.49,7.79-.66,8.95-.61,17.94-.72,26.9-.37,4.45,.18,8.9,.47,13.33,.87,2.15,.19,4.31,.41,6.46,.65,1.23,.14,2.45,.3,3.68,.44,1.29,.16,1.23,.15-.19-.03l1.83,.26c9.77,1.51,19.48,3.34,29.1,5.63,18.69,4.44,37.01,10.33,54.98,17.08,4.35,1.63,8.68,3.32,13,5.05,1.91,.77,3.82,1.54,5.73,2.33,.95,.39,1.9,.79,2.85,1.19-3.75-1.58,1.02,.46,1.41,.63,7.39,3.23,14.68,6.68,21.77,10.52s13.87,7.99,20.33,12.7c.83,.6,1.65,1.21,2.46,1.83-.55-.42-2.63-2.15-.05,.02,1.36,1.14,2.72,2.27,4.05,3.46,3.02,2.69,5.9,5.52,8.62,8.52,1.36,1.5,2.63,3.06,3.93,4.6s-.35-.44-.5-.64c.58,.83,1.19,1.64,1.77,2.47,2.45,3.55,4.39,7.29,6.47,11.05,.98,1.76-.23-.62-.33-.87,.35,.94,.72,1.87,1.04,2.82,.64,1.89,1.2,3.82,1.64,5.77,.22,.97,.36,1.96,.58,2.92-.05-.23-.22-3.2-.17-1.13,.06,2.18,.11,4.33,.11,6.52,0,1.34-.9,2.69,.12-.56-.28,.88-.38,1.85-.63,2.74-.19,.67-.46,1.33-.64,2-.62,2.36,1.59-2.42,.13-.46-.54,.72-1.01,1.62-1.45,2.42-.94,1.7,.4-.62,.62-.8-.65,.56-1.32,1.34-1.94,1.97-2.5,2.55,1.57-.5-.09,.05-.71,.23-1.73,.85-2.3,1.33-1.78,1.51,2.92-.85,.65-.22-1.51,.42-3.01,.87-4.52,1.29-3.28,.92,.3,.16,.73,0-.7,.24-2.11,.19-2.77,.22-1.88,.1-3.77,.08-5.66-.03-.95-.05-1.91-.2-2.86-.23,3.77,.14,1.51,.26,.49,.05-1.9-.39-3.8-.73-5.68-1.2-3.75-.94-7.36-2.23-10.98-3.58-.68-.25-3.13-1.4,.03,.04-.94-.43-1.89-.84-2.82-1.27-1.64-.77-3.26-1.57-4.86-2.41-3.65-1.92-7.2-4.03-10.6-6.37-.85-.58-1.66-1.2-2.51-1.79-2.21-1.54,1.98,1.81,.01-.02-1.3-1.21-2.72-2.31-4.01-3.54-1.47-1.39-2.9-2.85-4.25-4.36-.68-.75-1.3-1.55-1.98-2.31,1.09,1.22,1.04,1.46,.05,.02-2.32-3.38-4.39-6.86-6.05-10.61,1.4,3.15-.21-.94-.58-2.11-.67-2.17-1.23-4.37-1.67-6.6-.19-.99-.36-1.99-.51-2.98,.11,.71,.3,3.69,.13,.27-.09-1.78-.21-3.54-.21-5.32s.05-3.57,.18-5.34c.07-1.02,.21-2.04,.27-3.06-.26,3.88-.03,.36,.13-.55,.68-3.81,1.64-7.58,2.85-11.26,.65-1.97,1.36-3.92,2.15-5.84-1.39,3.37,.94-1.78,1.45-2.76,1.91-3.69,4.11-7.17,6.47-10.59,.13-.19,1.66-2.25,.46-.67-1.32,1.74,.75-.89,1.07-1.27,1.53-1.83,3.12-3.6,4.77-5.32,2.74-2.86,5.65-5.56,8.69-8.11,.78-.66,4.66-3.59,1.96-1.62,1.93-1.41,3.87-2.8,5.86-4.12,6.9-4.59,14.19-8.56,21.71-12.03,.73-.34,6.46-2.8,3.08-1.4,1.98-.82,3.98-1.6,5.98-2.36,4.15-1.57,8.36-3.01,12.59-4.36,9.1-2.89,18.36-5.3,27.7-7.26,4.52-.95,9.06-1.79,13.62-2.54,2.43-.4,4.87-.77,7.31-1.1-.81,.11-3,.36,.71-.07,1.22-.14,2.45-.29,3.67-.43,19.35-2.13,38.88-2.54,58.32-1.55,9.58,.49,19.15,1.31,28.68,2.45,1.23,.15,2.46,.3,3.68,.46,.43,.05,3.52,.5,.73,.1,2.46,.36,4.92,.71,7.37,1.1,4.99,.78,9.97,1.64,14.93,2.58,38.82,7.29,76.67,19.01,113.77,32.43,9.21,3.33,18.39,6.78,27.54,10.29,8.81,3.38,20.13-3.73,22.14-12.57,2.34-10.29-3.14-18.52-12.57-22.14-81.12-31.13-167.46-57.24-255.38-50.02-41.56,3.41-85.42,13.02-121.08,35.6-33.52,21.23-60.25,57.96-56.52,99.4,1.88,20.97,10.75,40.16,26.45,54.42,14.2,12.9,32.53,22.81,51.21,27.33,19.56,4.73,42.41,3.56,57.32-11.64,15.29-15.58,16.37-39.51,8.57-58.97-14.72-36.73-49.94-59.26-84.78-74.47-40.32-17.61-82.19-31.36-125.96-36.92-40.61-5.16-83.48-1.84-121.61,13.73C40.31,118.81-2.66,148.08,.13,193.61c.65,10.65,3.54,21.23,9.68,30.06,5.36,7.71,16.01,12.01,24.63,6.46,7.67-4.94,12.21-16.36,6.46-24.63h0Z"/><path d="M611.66,22.93c8.57,22.49,24.76,41.71,40.42,59.62,17.53,20.05,36.52,39.02,56.84,56.25,5.55,4.7,11.25,9.22,17.05,13.61,2.23,1.69,4.49,3.34,6.8,4.92,.93,.64,1.87,1.27,2.81,1.89,1.41,.92,4.48,3.8,.43-.01l-4.63-7.94-.33-2.94,2.46-9.08,1.71-2.15,7.94-4.63c5.05-1.45,1.88-.23-.04-.14-1.25,.06-2.5,.12-3.75,.17-2.45,.1-4.9,.17-7.34,.25-4.79,.14-9.58,.25-14.37,.46-11.27,.49-22.56,1.65-33.63,3.86-30.53,6.11-58.88,21.39-84.91,37.94-7.94,5.05-11.86,16.25-6.46,24.63,5.12,7.94,16.13,11.86,24.63,6.46,13.48-8.57,27.34-16.61,41.89-23.23,1.47-.67,2.95-1.31,4.43-1.96-3.29,1.45-.29,.13,1.2-.46,2.88-1.14,5.79-2.22,8.73-3.22,4.94-1.68,9.95-3.14,15.02-4.33,2.32-.55,4.66-1.04,7.01-1.48,1.13-.21,2.27-.41,3.4-.59,.94-.15,5.25-.75,1.89-.32s.5-.05,1.35-.14c1.08-.12,2.15-.23,3.23-.33,2.27-.21,4.54-.39,6.82-.53,8.56-.53,17.14-.61,25.71-.93,8.28-.31,16.55-.27,23.05-6.32,5.29-4.92,7.25-13.25,5.24-20.08-1.81-6.15-6.01-9.87-11.17-13.14-3.5-2.21-6.87-4.61-10.18-7.09-.64-.48-3.75-2.82-1.36-1.03s-.82-.66-1.46-1.18c-2.16-1.73-4.29-3.48-6.41-5.26-18.68-15.69-36.15-32.92-52.51-51.01-4.6-5.09-9.1-10.26-13.47-15.54-2.07-2.5-4.05-5.09-6.12-7.59-1.28-1.55,1.05,1.34,1,1.31-.64-.51-1.25-1.63-1.76-2.31-.91-1.21-1.81-2.42-2.69-3.64-3.23-4.44-6.33-8.99-9.14-13.71-1.21-2.04-2.38-4.1-3.45-6.21-.49-.96-.93-1.95-1.41-2.91-1.61-3.23,1.7,4.35,.24,.52-3.34-8.77-12.28-15.76-22.14-12.57-8.55,2.77-16.16,12.72-12.57,22.14h0Z"/></g></g></svg>