<?xml version="1.0" encoding="UTF-8"?><svg xmlns="http://www.w3.org/2000/svg" viewBox="0 0 103.3 114.04"><g id="a"/><g id="b"><g id="c"><path d="M74.82,0c1.85,.36,3.72,.62,5.54,1.1,14.71,3.95,24.32,17.93,22.78,33.05-.75,7.36-3.75,13.68-8.96,18.9-17.97,18.01-35.93,36.04-53.99,53.95-6.61,6.55-14.68,8.59-23.56,5.83-9.11-2.83-14.62-9.27-16.24-18.66-1.31-7.58,.76-14.43,6.17-19.94,11.02-11.22,22.2-22.28,33.32-33.4,6.66-6.66,13.28-13.37,20-19.97,7.14-7.01,18.85-5.73,24.41,2.57,4.23,6.32,3.4,14.71-2.05,20.21-6.95,7-13.95,13.96-20.92,20.93-5.87,5.87-11.74,11.76-17.63,17.62-1.99,1.99-4.9,1.76-6.32-.44-.94-1.45-.82-3.33,.29-4.66,.29-.34,.61-.64,.93-.96,12.56-12.56,25.12-25.13,37.69-37.68,2.17-2.17,3.24-4.68,2.61-7.75-1.23-6.03-8.3-8.51-13.05-4.61-.29,.23-.55,.5-.81,.76C47.54,44.33,30.07,61.79,12.62,79.27c-5.53,5.54-6.24,14.01-1.77,20.24,5.64,7.88,16.86,8.79,23.84,1.87,9.5-9.43,18.95-18.92,28.41-28.39,8.39-8.39,16.78-16.79,25.18-25.18,5.15-5.15,7.5-11.33,7.05-18.61-.64-10.26-8.96-19.42-19.15-20.95-8.03-1.21-14.95,1.05-20.7,6.8-13.12,13.11-26.23,26.22-39.33,39.34-1.16,1.17-2.47,1.78-4.1,1.38-3.03-.74-4-4.41-1.76-6.69,3.46-3.51,6.97-6.98,10.46-10.47,9.68-9.68,19.37-19.34,29.03-29.04C55.12,4.19,61.49,.99,69.05,.18c.22-.02,.44-.12,.65-.18,1.71,0,3.41,0,5.12,0Z"/></g></g></svg>