<?xml version="1.0" encoding="UTF-8"?><svg xmlns="http://www.w3.org/2000/svg" viewBox="0 0 122.1 180.07"><defs><style>.d{fill:#4d897b;}</style></defs><g id="a"/><g id="b"><g id="c"><path class="d" d="M116.02,12.26v118.35c0,1.49,.05,2.99,0,4.48-.13,3.34-3.02,5.87-6.37,5.91-2.73,.03-5.47,0-8.2,0h-2.42l3,3V48.33c0-4.05,.37-7.99-1.84-11.65-2.54-4.21-6.97-7.66-11.49-9.52-2.96-1.22-6.02-2.21-9.08-3.16-8.93-2.8-17.99-5.19-27.06-7.47-9.53-2.39-19.11-4.63-28.74-6.6-3.71-.76-7.43-1.48-11.17-2.09-2.58-.42-5.22-.89-7.84-.93-.75-.01-1.61-.01-2.32,.25l3.69,3.69c.89-3.35,3.55-4.85,7-4.85H108.36c.44,0,.88,0,1.32,0,.8,.01,1,.03,1.64,.2,1.41,.37,2.5,1.03,3.52,2.36-.12-.15,.33,.54,.44,.74,.24,.43,.26,.47,.36,.78,.34,.99,.37,1.23,.39,2.19,.07,3.86,6.07,3.87,6,0C121.89,5.41,116.38,.04,109.54,0,107.88,0,106.21,0,104.55,0H13.65C9.83,0,6.15,.89,3.41,3.8,1.96,5.34,.93,7.21,.39,9.26s1.47,4.49,3.69,3.69c.06-.02,.21-.03,.25-.07,.11-.11-.94,.05-.34,.05,.35,0,.69-.02,1.04,0,1.01,.03,2.02,.15,3.02,.27,.14,.02,.29,.04,.43,.05,.58,.07-.41-.06-.2-.03,.37,.06,.75,.1,1.12,.16,.76,.11,1.52,.23,2.28,.36,1.73,.29,3.46,.6,5.18,.93,9.07,1.72,18.08,3.77,27.05,5.93,9.44,2.27,18.86,4.69,28.18,7.41,3.68,1.07,7.35,2.19,10.97,3.45,1.33,.46,2.63,1.01,3.95,1.47,.19,.07-.71-.35-.22-.09,.14,.07,.28,.14,.42,.21,.42,.21,.82,.44,1.22,.68,.42,.25,.84,.52,1.24,.79,.22,.15,.45,.3,.67,.46,.11,.08,.23,.16,.34,.25,.73,.53-.22-.19,.2,.15,1,.79,1.95,1.66,2.8,2.6,.16,.18,.58,.67,.57,.65-.04-.06,.31,.43,.4,.57,.36,.54,.71,1.12,.97,1.72-.17-.4,.09,.28,.12,.39,.1,.33,.18,.66,.24,1s0,0-.01-.07c.01,.15,.02,.3,.02,.44,0,.04,0,.1,0,.16,0,.07,0,.13,0,.2,0,1.09,0,2.17,0,3.26v86.06c0,3.72-.05,7.43,0,11.15,0,.17,0,.33,0,.5,0,1.62,1.37,3,3,3h7.66c3.37,0,6.67,.03,9.64-1.9,3.56-2.32,5.65-6.18,5.71-10.42,0-.54,0-1.08,0-1.62V31.83c0-6.42,.18-12.87,0-19.29,0-.09,0-.18,0-.27,0-3.86-6-3.87-6,0Z"/><path class="d" d="M88.82,27.22c-8.15-3.35-16.83-5.57-25.33-7.85-10.99-2.95-22.06-5.63-33.17-8.06-8-1.74-16.18-3.72-24.37-4.34-1.03-.08-2.13-.14-3.14,.1C.34,7.66,.04,10.2,.02,12.36,0,13.41,.02,14.46,.02,15.52v121.82c0,1.02-.04,2.05,0,3.07,.07,1.79,1.14,3.34,2.63,4.28,1.29,.81,2.69,1.46,4.06,2.1,1.82,.84,3.68,1.9,5.69,2.02l-1.51-.41c10.27,4.9,20.82,9.26,31.34,13.6s21.48,8.74,32.27,13c3.31,1.31,6.63,2.61,9.95,3.91,.75,.29,1.49,.62,2.25,.88,2.05,.68,4.88,0,6.88-.63,3.48-1.11,6.9-3.38,8.08-7,.41-1.26,.37-2.57,.37-3.88V47.63c0-1.49,0-2.98,0-4.47-.02-4.8-2.95-8.81-6.53-11.75-1.81-1.48-3.78-2.96-5.95-3.88-1.49-.63-3.21-.45-4.1,1.08-.74,1.26-.42,3.47,1.08,4.1,.85,.36,1.66,.83,2.45,1.32,.52,.32,1.03,.67,1.52,1.03,.15,.11,.31,.22,.46,.34-.05-.04-.3-.24-.03-.02,.31,.25,.62,.5,.92,.77,1.14,.99,2.22,2.12,2.85,3.06,.31,.46,.84,1.4,.93,1.64-.04-.1,.18,.55,.24,.76,.05,.19,.09,.38,.14,.57,.05,.22,.04,.4,.02,.08,.07,1.03,.02,2.07,.02,3.09v45.46c0,9.48,0,18.96,0,28.44v48.63c0,.52,0,1.04,0,1.56,0,.11,0,.21,0,.32,.03,.57,.05-.25-.04,.42-.02,.13-.07,.25-.11,.38,.14-.49,.07-.12-.01,.01-.1,.17-.47,.75-.36,.62-.17,.22-.95,.91-1.14,1.03-1.4,.91-2.78,1.41-4.56,1.67-.24,.03-.67,.07-.98,.09-.42,.02-.85-.03-.23,.14-.04-.01-.09-.03-.13-.05-.2-.1-.44-.17-.65-.25-2.51-.98-5.02-1.96-7.52-2.94-9.93-3.9-19.84-7.86-29.72-11.89-10.97-4.48-21.02-8.61-31.82-13.52-2.19-.99-4.58-2.54-6.98-2.69l1.51,.41c-2.71-1.17-5.64-2.28-8.08-3.99l1.08,1.08c-.24-.36-.45-.73-.66-1.11l.41,1.51V28.18c0-5.26-.04-10.51,0-15.77,0-.53,.04-1.04,.15-1.56l-2.1,2.1c.58-.21,.04,.12-.33,0,.17,.05,.5-.04,.68-.04,.62,0,1.25,.04,1.87,.09,.38,.03,.75,.07,1.13,.11,.33,.04,1.92,.27,.78,.09,1.07,.17,2.14,.31,3.2,.49,5.8,.95,11.57,2.15,17.32,3.41,14.06,3.06,28.07,6.5,41.91,10.48,5.58,1.6,11.21,3.22,16.59,5.43,1.5,.62,3.3-.67,3.69-2.1,.47-1.72-.59-3.07-2.1-3.69Z"/><path class="d" d="M.39,9.26c-.15,.61-.22,1.24-.3,1.86-.05,.38-.07,.76-.07,1.14H6.02v-1.71c0-.08,0-.17,0-.26l-.11,.8s0-.03,.01-.04l-.3,.72s.02-.04,.04-.06l-.47,.61s.04-.04,.06-.06l-.61,.47s.1-.06,.15-.08c.35-.19,.63-.45,.84-.77,.27-.29,.44-.63,.54-1.02,.13-.4,.14-.8,.05-1.2-.02-.4-.14-.77-.36-1.12l-.47-.61c-.37-.37-.82-.63-1.32-.77l-.8-.11c-.54,0-1.05,.14-1.51,.41-.04,.02-.08,.03-.11,.06-.12,.07-.26,.19-.34,.26,.1-.08-.24,.17-.33,.25-.01,.01-.02,.03-.04,.04-.05,.05-.44,.56-.48,.62l-.02,.04c-.04,.07-.29,.66-.31,.74-.04,.13-.06,.41-.06,.43,0-.02-.05,.29-.05,.42H.02s0,.03,0,.04c0,.13,0,.27,0,.4v1.5c-.02,.41,.07,.8,.26,1.16,.12,.37,.33,.69,.62,.97,.27,.29,.59,.5,.97,.62,.36,.19,.74,.27,1.16,.26l.8-.11c.51-.14,.95-.4,1.32-.77l.47-.61c.27-.47,.41-.97,.41-1.51,0-.42,.03-.85,.08-1.27l-.11,.8c.04-.32,.1-.63,.18-.94,.13-.4,.14-.8,.05-1.2-.02-.4-.14-.77-.36-1.12-.19-.35-.45-.63-.77-.84-.29-.27-.63-.44-1.02-.54l-.8-.11c-.54,0-1.05,.14-1.51,.41l-.61,.47c-.37,.37-.63,.82-.77,1.32Z"/></g></g></svg>