<?xml version="1.0" encoding="UTF-8"?><svg xmlns="http://www.w3.org/2000/svg" viewBox="0 0 112.83 128.88"><g id="a"/><g id="b"><g id="c"><g><path d="M57.41,0c17.46,10.08,34.91,20.18,52.41,30.21,2.11,1.21,3.01,2.72,3,5.15-.06,19.48-.05,38.97,0,58.45,0,2.27-.84,3.74-2.82,4.88-16.99,9.75-33.95,19.54-50.89,29.37-1.89,1.09-3.5,1.09-5.39,0-17.01-9.88-34.05-19.71-51.11-29.51C.8,97.51,0,96.13,0,94.07,.03,74.37,.03,54.68,0,34.99c0-2.06,.74-3.46,2.56-4.51C19.69,20.64,36.79,10.74,53.9,.86,54.4,.58,54.9,.29,55.4,0h2.02Zm2.77,118.62c.42-.21,.65-.31,.86-.43,14.45-8.34,28.9-16.68,43.37-25,.69-.4,.84-.88,.84-1.62-.02-16.54-.01-33.07-.02-49.61,0-.35-.05-.7-.09-1.16-.46,.24-.79,.4-1.11,.58-14.31,8.26-28.61,16.52-42.93,24.75-.73,.42-.94,.88-.94,1.68,.02,16.54,.02,33.07,.02,49.61v1.2Zm-7.67-.02c.07-.23,.09-.27,.09-.31,0-16.96,.02-33.92,0-50.88,0-.41-.43-.96-.81-1.19-2.66-1.6-5.36-3.13-8.05-4.68-.28-.16-.58-.27-1.05-.49,0,.61,0,1.06,0,1.51,0,3.82,.02,7.64,0,11.46-.02,3.76-2.92,5.42-6.18,3.55-5.53-3.18-11.03-6.39-16.57-9.55-1.63-.93-2.38-2.21-2.36-4.09,.05-5.5,0-11,.04-16.5,0-.72-.22-1.12-.85-1.48-2.74-1.54-5.46-3.13-8.18-4.7-.27-.16-.57-.26-1-.45v1.38c0,16.37,0,32.74-.02,49.12,0,1,.29,1.55,1.17,2.06,11.6,6.66,23.18,13.35,34.77,20.04,2.97,1.71,5.94,3.43,9.02,5.2ZM66.31,13.92c-.45-.29-.79-.53-1.15-.73-2.54-1.47-5.11-2.89-7.61-4.42-.83-.51-1.43-.49-2.27,0-11.31,6.57-22.64,13.1-33.97,19.63-3.26,1.88-6.52,3.77-9.92,5.73,3.12,1.8,6.11,3.48,9.05,5.25,.74,.44,1.24,.36,1.93-.04,14.22-8.23,28.45-16.45,42.68-24.66,.39-.22,.76-.46,1.25-.76ZM28.98,44.25c.45,.28,.79,.49,1.14,.7,2.54,1.47,5.11,2.9,7.61,4.43,.88,.54,1.51,.49,2.38-.01,14.22-8.24,28.45-16.46,42.68-24.68,.33-.19,.65-.42,1.08-.7-3.04-1.75-5.95-3.4-8.82-5.13-.79-.47-1.36-.46-2.15,0-8.26,4.81-16.55,9.57-24.82,14.35-6.31,3.65-12.63,7.29-19.09,11.02Zm17.56,10.11c.47,.3,.8,.54,1.15,.74,2.54,1.47,5.11,2.89,7.61,4.42,.85,.52,1.45,.44,2.27-.04,14.22-8.24,28.46-16.45,42.69-24.67,.34-.2,.66-.42,1.11-.7-3.05-1.76-5.97-3.41-8.83-5.14-.8-.48-1.37-.42-2.15,.03-12.51,7.26-25.05,14.48-37.57,21.71-2.06,1.19-4.1,2.39-6.28,3.65Zm-11.7,13.5c.13-.18,.22-.24,.22-.31,.02-3.48,.05-6.95,.03-10.43,0-.28-.21-.67-.44-.81-3.09-1.82-6.2-3.59-9.5-5.49,0,3.8-.02,7.39,.03,10.97,0,.31,.38,.71,.69,.89,1.86,1.12,3.76,2.2,5.64,3.28,1.11,.64,2.23,1.26,3.33,1.89Z"/><path d="M96.6,83.94c-.05,1.4-.63,2.54-1.84,3.24-6.78,3.93-13.55,7.87-20.36,11.75-1.85,1.05-4.09,.32-5.1-1.49-.98-1.76-.44-3.97,1.38-5.04,6.73-3.93,13.47-7.84,20.25-11.7,2.6-1.48,5.67,.33,5.68,3.24Z"/><path d="M72.64,79.3c-1.69-.15-3.19-1.27-3.64-2.8-.51-1.75,.14-3.44,1.79-4.41,4.38-2.56,8.78-5.07,13.17-7.61,2.21-1.28,4.42-2.56,6.64-3.83,2.14-1.22,4.36-.75,5.49,1.15,1.11,1.88,.44,4.14-1.66,5.36-6.56,3.81-13.13,7.6-19.71,11.36-.63,.36-1.39,.52-2.08,.78Z"/></g></g></g></svg>