<?xml version="1.0" encoding="UTF-8"?><svg xmlns="http://www.w3.org/2000/svg" viewBox="0 0 174.01 224.01"><defs><style>.d{fill:#4d897b;}</style></defs><g id="a"/><g id="b"><g id="c"><path class="d" d="M157.15,218h-5.73c-5.09,0-10.17,0-15.26,0-7.2,0-14.39,0-21.59,0-8.31,0-16.63,0-24.94,0s-16.83,0-25.25,0c-7.54,0-15.08,0-22.62,0H25.03c-2.64,0-5.27,0-7.91,0-6.23-.02-11.09-4.85-11.12-11.08,0-2.04,0-4.08,0-6.12,0-4.46,0-8.92,0-13.39v-41.6c0-8.36,0-16.72,0-25.08s0-17.02,0-25.53v-24.44c0-7.23,0-14.47,0-21.7V20.44c0-2.2-.13-4.5,.36-6.36,1.27-4.77,5.62-8.03,10.5-8.08,.53,0,1.06,0,1.6,0,3.69,0,7.38,0,11.06,0,6.3,0,12.59,0,18.89,0,7.9,0,15.8,0,23.7,0,8.49,0,16.99,0,25.48,0s16.15,0,24.22,0c6.67,0,13.34,0,20,0,4.18,0,8.36,0,12.55,0,.86,0,1.72,0,2.57,0,3.29,.01,6.19,1.24,8.45,3.78,1.74,1.96,2.61,4.63,2.62,7.34,0,.71,0,1.42,0,2.13V90.92c0,8.53,0,17.06,0,25.58v25.17c0,7.74,0,15.49,0,23.23v41.56c0,1.25-.03,2.15-.32,3.3-.61,2.41-1.86,4.42-3.96,6.05-1.74,1.35-4.24,2.17-6.58,2.2-3.86,.05-3.87,6.05,0,6,6.43-.08,12.59-3.79,15.26-9.72,1.09-2.42,1.59-4.96,1.6-7.6,0-2.35,0-4.69,0-7.04v-33.89c0-7.83,0-15.65,0-23.48v-51.23c0-8.15,0-16.29,0-24.44v-21.22c0-5.5,0-10.99,0-16.49v-9.92c0-.65,0-1.3,0-1.95-.02-4.22-1.5-8.18-4.27-11.37C166.57,2.01,161.83,.04,157.04,0c-.77,0-1.54,0-2.31,0-4.09,0-8.18,0-12.27,0-6.66,0-13.33,0-19.99,0-8.17,0-16.34,0-24.51,0-8.58,0-17.15,0-25.73,0-8.01,0-16.02,0-24.04,0-6.32,0-12.65,0-18.97,0h-10.94c-.71,0-1.42-.02-2.13,.02C9.65,.35,3.85,4.37,1.32,10.39,0,13.53,0,16.68,0,19.97v50.12c0,8.21,0,16.42,0,24.63S0,111.98,0,120.62s0,16.88,0,25.32S0,161.23,0,168.87v32.28c0,1.96-.01,3.91,0,5.87,.07,9.38,7.62,16.93,17,16.99,2.49,.02,4.98,0,7.47,0,5.56,0,11.13,0,16.69,0,7.54,0,15.08,0,22.61,0,8.53,0,17.06,0,25.59,0s16.87,0,25.3,0c7.25,0,14.5,0,21.75,0,5.08,0,10.17,0,15.25,0h5.47c3.86,0,3.87-6,0-6Z"/></g></g></svg>