<?xml version="1.0" encoding="UTF-8"?><svg xmlns="http://www.w3.org/2000/svg" viewBox="0 0 115.39 80.84"><defs><style>.d{fill:#4d897b;}</style></defs><g id="a"/><g id="b"><g id="c"><path class="d" d="M109.39,6.91v25.82c0,8.6-.14,17.22,0,25.82,0-.06,.03-.74,0-.2,.18-.39,.18-.44,.01-.15l.18-.25s-.6,.5-.28,.27c.21-.15-.58,.31-.69,.37-.02,0-.5,.2-.19,.09-.33,.13-.68,.23-1.03,.33-.58,.16-1.17,.28-1.76,.36-1.28,.16-2.6,.1-3.89,.1h-8.2l3,3V25.37c0-2.62,.56-6.27-.9-8.6-2.87-4.61-9.07-5.15-13.93-5.86-5.26-.77-10.53-1.44-15.8-2.09-12.42-1.51-24.86-2.86-37.31-4.06-5.16-.5-10.33-.97-15.5-1.37-2.97-.23-5.99-.54-8.98-.48-.54,.01-1.07,.07-1.6,.16l3.39,4.41c.11-.18,.29-.29-.07,.06,.08-.08,.17-.21,.27-.26,.39-.19-.36,.23,.04-.02,.13-.08,.25-.16,.38-.23,.64-.35,1.33-.55,2.25-.75,1.01-.22,2.02-.28,3.05-.28,.36,0,.72,0,1.08,0H101.78c2.08,0,4.12-.03,6.14,.61,.42,.13,1.14,.45,1.38,.62-.27-.2,.11,.1,.11,.09,.45,.07,0,.27,0-.08,0,.09,.02,.6-.01-.15,0,.16,.04,.61,0-.2,.09,1.62,1.31,3,3,3,1.55,0,3.09-1.37,3-3C115.06,1.18,107.71,0,103.21,0,101.49,0,99.77,0,98.05,0H13.5C10.65,0,7.78,.08,5.09,1.14,3.34,1.84,1.73,2.81,.73,4.46c-.62,1.02-.5,2.41,.23,3.33,.81,1.01,1.91,1.28,3.15,1.08-1.07,.17-.49,.06,.12,.05,.5,0,1,0,1.51,.02,1.52,.05,3.03,.15,4.55,.25,4.63,.32,9.26,.73,13.88,1.16,12.16,1.13,24.31,2.42,36.45,3.84,2.84,.33,5.69,.68,8.53,1.03,1.35,.17,2.7,.34,4.05,.52,.58,.08,1.16,.15,1.74,.23,.15,.02,.3,.04,.45,.06-.71-.09-.28-.04-.13-.02,.33,.04,.66,.09,.99,.13,2.09,.29,4.18,.58,6.27,.91,1.88,.29,3.81,.52,5.58,1.23-.38-.15,.48,.23,.66,.32,.36,.19,.71,.4,1.05,.62,.06,.04,.45,.35,.1,.06,.14,.12,.27,.27,.42,.38,.09,.07,.36,.44,.05,0,.05,.07,.44,.65,.2,.31-.16-.23-.12,.25-.03-.05,.02-.07-.03-.21-.03-.15,0,.02,0,.03,0,.05,0,.1,0,.2,0,.3-.05,1.09,0,2.2,0,3.29v13.34c0,8.39-.14,16.8,0,25.2,0,.16,0,.32,0,.48,0,1.62,1.37,3,3,3h7.35c3.67,0,7.36-.01,10.74-1.69,2.4-1.19,3.75-3.26,3.75-5.89V6.91c0-3.86-6-3.87-6,0Z"/><path class="d" d="M89.71,12.58c-10.91-2-22.01-3.19-33.02-4.51-13.16-1.57-26.33-3.05-39.52-4.25-3.94-.36-7.9-.75-11.86-.88-2.12-.07-4.23,.05-5.01,2.54C-.02,6.47,.08,7.6,.08,8.63V57.93c0,1.27-.23,2.69,.11,3.91,.68,2.47,3.78,2.89,5.89,3.35,1.24,.27,2.48,.52,3.72,.76,.6,.12,1.21,.25,1.82,.25,.53,0-.28-.08-.31-.06,.02-.02,.53,.11,.57,.12,2.67,.57,5.35,1.11,8.03,1.65,6.79,1.36,13.58,2.68,20.38,3.98,13.06,2.5,26.12,4.95,39.2,7.37,2.61,.48,5.22,1.01,7.84,1.45,3.44,.57,7.9-.75,8.95-4.45,.49-1.71,.26-3.77,.26-5.54v-22.95c0-9.28,.14-18.56,0-27.84-.06-4.01-3.08-6.6-6.83-7.35-1.59-.32-3.24,.46-3.69,2.1-.41,1.48,.5,3.37,2.1,3.69,.46,.09,.92,.2,1.36,.36,.52,.18-.54-.32,.29,.13,.18,.1,.35,.22,.53,.32-.1-.06-.44-.2,.09,.12-.25-.15-.03,0,.08,.12-.18-.18,0-.06,.06,.15,.02,.08-.06-1.08,.02,.23,.01,.22,0,.45,0,.67v51.43c0,.61,0,1.22,0,1.84,0,.2,0,.39,0,.59,0,.1-.02,.21-.01,.3,.03,.51,.21-.5,.04-.26-.06,.08-.42,1.18,.02,.11-.04,.09-.15,.19-.18,.28l.24-.34c-.23,.21-.17,.18,.17-.1-.05,.07-.32,.2-.37,.22,.12-.05,.6-.17,.04-.02-.42,.11-.78,.21-.9,.23-.16,.02-1.55,.18-.63,.17-.02,0-.04-.01-.06-.01-.26-.01-.54-.1-.8-.15-1.31-.24-2.61-.48-3.92-.72-12-2.22-23.99-4.46-35.97-6.74-6.97-1.33-13.93-2.66-20.89-4.03-3.01-.59-6.02-1.19-9.02-1.81-1.29-.26-2.57-.53-3.86-.8-.58-.12-1.15-.26-1.73-.37-.44-.08-.87-.08-1.31-.12,.65,.06-.33-.1-.48-.13-.37-.07-.74-.15-1.11-.22-1.1-.22-2.19-.45-3.28-.7-.36-.08-.71-.17-1.07-.26-.14-.04-.29-.09-.44-.12-.48-.1-.46-.36,.17,.15l.88,2.12V8.73c0-.46,.02-.92,0-1.38-.02-.51,.18-.63-.16,.13l-1.79,1.38c-1.45,.23-.13,.05,.35,.06,.62,0,1.24,.03,1.86,.06,1.94,.09,3.88,.24,5.82,.4,5.88,.48,11.75,1.06,17.61,1.67,14.22,1.48,28.42,3.11,42.6,4.97,.41,.05,.81,.11,1.22,.16,.16,.02,.32,.04,.48,.06,.16,.02,.32,.04,.48,.06-.37-.05-.44-.06-.21-.03,.8,.11,1.6,.22,2.4,.33,1.49,.21,2.99,.42,4.48,.64,2.31,.34,4.62,.69,6.92,1.11,1.59,.29,3.23-.44,3.69-2.1,.4-1.46-.49-3.4-2.1-3.69Z"/></g></g></svg>