<?xml version="1.0" encoding="UTF-8"?><svg xmlns="http://www.w3.org/2000/svg" viewBox="0 0 122.03 61.04"><defs><style>.d{fill:#4d897b;}</style></defs><g id="a"/><g id="b"><g id="c"><path class="d" d="M110.28,55.01H12.36c-.2,0-.4,0-.6,0-.01,0-.03,0-.04,0-.56,0-.55,0-.92-.06-.28-.05-.55-.12-.82-.21-.08-.02-.73-.26-.37-.11-.3-.12-.59-.29-.87-.46-.07-.04-.75-.52-.46-.29-.95-.74-1.36-1.29-1.83-2.34-.24-.53-.44-1.56-.45-2.27,0-.37,0-.75,0-1.13V13.43c0-2.16-.07-3.52,1.2-5.23,1.1-1.47,2.93-2.19,4.94-2.19,1,0,1.99,0,2.99,0H103.74c2.17,0,4.34-.04,6.5,0,3.16,.05,5.7,2.53,5.75,5.73,.02,1.31,0,2.63,0,3.95,0,11.16,.14,22.33,0,33.49-.04,3.23-2.48,5.76-5.72,5.83-3.86,.08-3.87,6.08,0,6,6.18-.12,11.25-4.83,11.7-11.02,.1-1.36,.03-2.75,.03-4.11V26.06c0-4.75,.07-9.51,0-14.26-.08-5.22-3.47-9.92-8.55-11.36-1.39-.39-2.82-.43-4.25-.43h-28.36c-14.36,0-28.72,0-43.08,0C29.2,.01,20.64-.02,12.09,.01c-3.19,.01-6.22,1.09-8.54,3.32C.97,5.82,0,9.16,0,12.65V47.81c0,2.73,.28,5.4,1.83,7.77,2.25,3.44,5.98,5.41,10.08,5.43,8.14,.05,16.27,0,24.41,0H110.28c3.86,0,3.87-6,0-6Z"/></g></g></svg>