<?xml version="1.0" encoding="UTF-8"?><svg xmlns="http://www.w3.org/2000/svg" viewBox="0 0 135.16 68.5"><defs><style>.d{fill:#4d897b;}</style></defs><g id="a"/><g id="b"><g id="c"><path class="d" d="M125.28,62.43H39c-1.47,0-2.93,0-4.4,0-.07,0-.14,0-.21,0-.68-.01-1.1-.05-1.79-.26s-1.23-.51-1.55-.82c-.11-.1-.21-.21-.31-.33-.33-.38,.22,.31-.05-.09-.08-.12-.14-.25-.2-.37,.23,.42,.04,.05,.02-.07,.06,.54,.01-.24,.01-.42,0-1.08,0-2.16,0-3.24v-2.15l-3,3h17.21c11.14,0,22.29,0,33.43,0h23.35c.65,0,1.3,.01,1.95-.05,4.01-.4,7.63-2.82,10.12-5.92,1.44-1.8,2.36-3.93,3.28-6.03,1.24-2.83,2.38-5.7,3.47-8.59,2.37-6.3,4.52-12.69,6.45-19.13,.8-2.66,1.56-5.33,2.22-8.03,.45-1.87,.94-3.83,1.02-5.76,.04-.88-.13-1.67-.51-2.47l-3.39,4.41c.89,.18,1.74,.43,2.33,.89,.3,.23,.39,.35,.53,.57,.07,.11,.34,.37,.08,.1l.08,.29c-.01-.26-.01-.28,0-.06,.02,.2,0,.4,0,.59,0,1.1,0,2.2,0,3.3V56.22c0,1.27,0,2.55,0,3.82,0,.12,0,.23,0,.35,0,.02,0,.04,0,.06h0c-.02,.37-.02,.38,.01,.04l-.07,.27c.29-.31,.05-.08-.03,.06-.45,.7,.37-.3-.23,.33-.43,.46-.31,.34-.89,.67-.64,.36-1.75,.6-2.66,.61-3.86,.08-3.87,6.08,0,6,4.68-.09,9.68-2.82,9.87-7.98,.03-.73,0-1.47,0-2.2V12.28c0-1.31,.01-2.62,0-3.93-.04-4.27-3.43-7.23-7.43-8.03-2.66-.53-4.54,2-3.39,4.41-.44-.92-.31-.8-.23-.5-.29-1.21-.05-.75-.07-.44-.02,.25-.02,.52-.04,.77-.03,.56-.11,.04,.04-.23-.07,.13-.07,.44-.09,.58-.07,.43-.15,.85-.24,1.27-.49,2.38-1.13,4.72-1.79,7.05-1.76,6.19-3.77,12.31-5.94,18.36-1.06,2.96-2.17,5.91-3.35,8.83-.12,.3-.25,.61-.37,.91-.06,.15-.12,.3-.18,.44,.04-.09,.25-.57,.03-.07-.26,.61-.53,1.22-.8,1.83-.44,.97-.9,1.94-1.39,2.89-.18,.35-.37,.69-.57,1.03-.18,.3-.41,.51-.04,.09-.25,.29-.5,.59-.76,.87-1.22,1.3-2.11,2.08-3.81,2.82-.53,.23-1.45,.43-2.18,.44-.2,0-.4,0-.6,0H47.57c-6.58,0-13.17-.16-19.75,0-.1,0-.21,0-.31,0-1.62,0-3,1.37-3,3,0,1.82-.01,3.64,0,5.45,.03,3.69,2.49,6.33,5.82,7.6,2.01,.76,4.1,.7,6.2,.7H111.35c4.56,0,9.16,.16,13.72,0,.07,0,.13,0,.2,0,3.86,0,3.87-6,0-6Z"/><path class="d" d="M113.46,53c3.16-5.59,5.29-11.88,7.47-17.9,2.57-7.09,4.97-14.26,7.01-21.52,.68-2.41,1.37-4.85,1.78-7.32,.15-.88,.32-1.79,.28-2.68-.03-.66-.15-1.3-.5-1.88-.88-1.49-2.68-1.6-4.23-1.63-1.97-.03-3.95,0-5.92,0H34.45c-2.44,0-5.67-.54-7.54,1.38-.81,.84-1.48,1.9-2.11,2.88-.79,1.24-1.5,2.29-1.63,3.79l.41-1.51C15.72,18.57,8.97,31.34,2.16,43.93c-.57,1.06-1.19,2.11-1.72,3.19-1.21,2.47,.28,5.86,1.93,7.78,1.52,1.77,3.73,2.7,6.03,2.77,4.95,.15,9.92,0,14.88,0H93.67c2.84,0,5.7,.09,8.54,0,.13,0,.26,0,.39,0l-2.12-.88c1.61,1.87,4.86,.54,6.74-.13,2.19-.77,4.89-1.64,6.25-3.67,.9-1.35,.26-3.32-1.08-4.1-1.47-.86-3.2-.27-4.1,1.08,.43-.64,.44-.54,.25-.35-.22,.22-.14-.11,.25-.19-.17,.03-.42,.26-.57,.34-.23,.13-.46,.24-.69,.35-.15,.07-.29,.13-.44,.2-.51,.24,.23-.09-.11,.05-1.2,.47-2.42,.91-3.67,1.23-.21,.05-.42,.09-.63,.15-.63,.17,.52,.01,.2-.02-.34-.03,1.82,.8,1.83,.82-.07-.3-1.2-.74-1.32-.77-.1-.03-.71-.1-.81-.11-.12,0-.24,0-.36,0-1.96-.05-3.92,0-5.88,0H10.69c-.65,0-1.3,0-1.95,0-.12,0-.24,0-.35,0-.33,0-.61-.07-.93-.25-.35-.2-.73-.6-.95-.96-.29-.48-.46-1.14-.48-1.82l-.41,1.51c5.73-10.7,11.59-21.35,17.77-31.8,1.03-1.73,2.06-3.46,3.12-5.17s2.53-3.38,2.7-5.41l-.41,1.51c.52-.87,1.04-1.74,1.61-2.58,.12-.18,.59-.85,.51-.74-.19,.25,.09-.11,.09-.11,.3-.29,.16-.28-.43,.02-.59,.13-.77,.19-.55,.19,.09,.09,.87,0,.99,0H112.99c4.06,0,8.11-.03,12.17,0,.32,0,.65-.01,.96,.03l-1.79-1.38c-.21-.44-.4-.79-.32-1.14-.02,.1,.02,.24,0,.35-.01,.14-.02,.29-.03,.43-.05,.93,.12-.59,0,.06-.2,1.11-.43,2.22-.69,3.32-.81,3.34-1.79,6.63-2.81,9.91-2.48,8-5.21,15.95-8.31,23.73-.36,.9-.73,1.8-1.1,2.7-.3,.73,.25-.58-.05,.12-.09,.2-.17,.41-.26,.61-.18,.42-.36,.84-.55,1.25-.59,1.32-1.21,2.64-1.92,3.9-1.9,3.37,3.28,6.39,5.18,3.03Z"/></g></g></svg>