<?xml version="1.0" encoding="UTF-8"?><svg xmlns="http://www.w3.org/2000/svg" viewBox="0 0 293.55 318.77"><defs><style>.d{fill:#fff;}</style></defs><g id="a"/><g id="b"><g id="c"><path d="M244.92,176.87c3.35,.58,6.45,.95,9.45,1.67,18.87,4.56,40.48,26.98,39.11,50.45-.75,12.95-6.43,23.87-15.19,32.93-17.71,18.31-35.87,36.19-53.92,54.17-3.63,3.62-8.38,3.49-11.65,.1-3.34-3.47-3.2-7.73,.64-11.58,16.5-16.54,33.14-32.93,49.52-49.58,3.99-4.06,7.72-8.56,10.68-13.4,5.4-8.84,5.48-18.3-.53-26.76-3.98-5.6-8.93-10.84-14.4-14.98-9.08-6.86-19.3-6.97-29.22-1.45-3.99,2.22-7.82,5.02-11.07,8.22-20.74,20.42-41.36,40.96-61.87,61.6-9.37,9.43-7.89,23.34,2.95,30.74,7.36,5.02,17.44,4.4,23.78-1.88,18.81-18.63,37.5-37.4,56.23-56.12,.88-.88,1.67-1.85,2.45-2.83,3.65-4.55,3.78-6.26,.77-9.35-3.93-4.04-6.67-4.37-11.1-1-1.97,1.5-3.64,3.39-5.4,5.15-11.68,11.64-23.35,23.28-35.01,34.94-2.74,2.74-5.86,3.79-9.52,2.17-5.13-2.27-6.5-8.56-2.43-12.76,13.21-13.63,26.24-27.47,40.04-40.49,12.43-11.74,26.52-9.85,36.67,3.87,5.2,7.02,5.75,14.48,1.5,22.06-1.63,2.9-3.69,5.69-6.03,8.05-18.84,18.96-37.66,37.94-56.74,56.66-20.1,19.71-53.33,10.45-60.33-16.77-3.43-13.34,.65-24.88,10.05-34.59,7.81-8.08,15.88-15.91,23.84-23.85,11.94-11.91,23.87-23.83,35.81-35.73,5.96-5.94,12.42-11.16,20.3-14.46,.94-.39,2-1.93,2.01-2.94,.09-36.43,.06-72.87,.04-109.3,0-.36-.16-.72-.34-1.47-1.25-.06-2.57-.18-3.89-.18-13.38-.01-26.76,0-40.14-.01-8.41-.01-10.72-2.32-10.72-10.63,0-12.35,0-24.71,0-37.06v-4.39h-4.41c-45.39,0-90.78,0-136.17,0-9.88,0-14.64,4.8-14.64,14.74,0,80.35,0,160.71,0,241.06,0,10.25,4.56,14.79,14.86,14.8,25.26,.01,50.52,0,75.77,.01,6.43,0,9.2,1.85,10.14,6.59,.99,4.99-2.34,9.43-7.47,9.44-27.88,.07-55.77,.22-83.65-.08-12.77-.14-24.75-12.43-25.51-25.14-.1-1.74-.16-3.49-.16-5.24C0,191.66,0,111.06,0,30.46,0,15.18,8.03,4.21,21.79,.86,24.54,.19,27.48,.09,30.33,.09,80.85,.04,131.36,.07,181.88,0c2.73,0,4.68,.84,6.62,2.68,17.6,16.65,35.25,33.26,52.97,49.79,2.98,2.78,3.46,6.13,3.46,9.81,0,36.68,0,73.37,0,110.05v4.54Zm-56.48-125.09h26.58c-9.04-8.71-17.55-16.91-26.58-25.61v25.61Z"/><path class="d" d="M188.45,51.78V26.17c9.03,8.7,17.54,16.9,26.58,25.61h-26.58Z"/></g></g></svg>