<?xml version="1.0" encoding="UTF-8"?><svg xmlns="http://www.w3.org/2000/svg" viewBox="0 0 114.35 130"><g id="a"/><g id="b"><g id="c"><g><path d="M47.02,0C53.79,0,60.56,0,67.33,0c.36,.09,.73,.2,1.09,.26,10.32,1.75,17.44,7.47,21.35,17.18,1.6,3.97,1.81,8.14,1.66,12.35-.03,.97,.24,1.46,1.17,1.88,4.65,2.11,7.11,7.08,6.23,12.41-.75,4.57-4.84,8.49-9.57,9.04-1.87,.22-3.77,.2-5.67,.3-.09,.37-.19,.69-.25,1.02-1.01,5.53-3.46,10.37-7.56,14.19-1.54,1.43-1.74,2.61-1.15,4.45,.65,2,1.76,3.17,3.88,3.43,3.74,.45,7.46,.99,11.19,1.45,4.19,.51,8.25,1.46,11.9,3.68,8.5,5.16,12.53,12.89,12.68,22.7,.1,6.85-.05,13.71,.06,20.56,.04,2.36-.63,4.1-2.83,5.12H2.83C.64,128.99-.08,127.25,0,124.88c.13-3.59,0-7.19,.04-10.79,.05-4.44-.1-8.9,.28-13.31,.97-11.15,9.97-20.59,21.06-22.32,4.89-.76,9.8-1.36,14.7-2.01,1.84-.25,2.98-1.28,3.5-3.04,.17-.57,.22-1.17,.44-1.72,.39-.97,.1-1.58-.67-2.27-4.28-3.85-6.98-8.64-8.23-14.25-.13-.61-.26-1.21-.4-1.87-1.4,0-2.71,.04-4.02,0-5.41-.17-9.49-3.33-11.01-8.5-1.3-4.41,.38-9.84,4.44-12.1,2.48-1.38,3.12-2.99,2.74-5.46-.02-.17,0-.34,0-.51,.14-11.62,7.03-21.35,18-25.23C42.87,.81,44.97,.49,47.02,0Zm36.77,99.37H30.57v22.94h53.21v-22.94ZM30.6,30.38h53.22c0-1.56,.04-3.04,0-4.51-.33-9.76-8.43-17.94-18.19-18.2-5.62-.15-11.26-.16-16.88,.01-5.82,.18-10.56,2.75-14.19,7.3-3.59,4.5-4.42,9.75-3.96,15.4Zm-7.7,91.94c0-.54,0-1,0-1.46,0-8.33,0-16.67,0-25,0-2.65,1.54-4.18,4.17-4.2,2.96-.02,5.92,0,8.88,0,.35,0,.7-.05,.84-.06-1.41-2.14-2.8-4.29-4.26-6.4-.18-.26-.69-.44-1.02-.41-2.23,.23-4.45,.54-6.67,.8-10.71,1.27-17.19,8.54-17.19,19.32,0,4.91,0,9.81,0,14.72v2.69h15.24Zm83.72,0c0-6.53,.26-12.97-.07-19.37-.41-7.99-4.55-13.7-12.2-16.21-3.72-1.22-7.79-1.38-11.71-1.99-.25-.04-.65,.16-.8,.38-1.45,2.14-2.87,4.32-4.32,6.52,3.06,0,6.26,0,9.45,0,3.05,0,4.49,1.45,4.49,4.52,0,8.25,0,16.49,0,24.74v1.41h15.16ZM38.31,50.53c-.12,7.86,6.78,17.99,18.47,18.25,11.52,.26,19.24-9.46,19.3-18.28-.42,.15-.81,.27-1.19,.43-3.39,1.43-6.93,2.24-10.59,2.32-4.74,.1-9.48,.17-14.21-.03-2.59-.11-5.17-.73-7.73-1.28-1.38-.3-2.7-.92-4.06-1.41Zm1.98,32.8c7.64,11.5,27.28,10.6,33.78-.11-3.75-1.69-5.96-4.67-6.9-8.75-6.72,2.63-13.33,2.57-19.88,.06-2.07,5.44-2.34,5.78-6.99,8.81Zm-6.33-45.21c4.04,4.18,8.63,6.86,14.11,7.25,5.72,.42,11.49,.35,17.22,.16,4.07-.13,7.83-1.66,11.18-4.04,1.33-.95,2.54-2.08,3.8-3.12l-.21-.26H33.96Zm-3.46,7.56l-5.81-6.86c-1.3,.75-2.02,2.23-1.73,3.74,.32,1.67,1.68,2.98,3.39,3.1,1.34,.09,2.68,.02,4.14,.02Zm53.38-.04c1.52,0,2.99,.12,4.42-.03,1.64-.18,2.9-1.61,3.12-3.23,.2-1.51-.56-2.94-1.78-3.53l-5.77,6.79Z"/><path d="M64.76,114.51c-2.41,0-4.82,.01-7.24,0-2.46-.02-4.17-1.62-4.15-3.84,.02-2.17,1.71-3.76,4.09-3.77,4.87-.02,9.73-.02,14.6,0,2.46,0,4.17,1.62,4.15,3.84-.02,2.22-1.73,3.76-4.22,3.77-2.41,.01-4.82,0-7.24,0Z"/><path d="M57.28,15.23c2.37,0,4.74-.01,7.11,0,2.48,.02,4.19,1.57,4.2,3.78,.01,2.22-1.7,3.82-4.16,3.82-4.82,.02-9.65,.02-14.47,0-2.48,0-4.19-1.57-4.2-3.78-.01-2.22,1.7-3.81,4.16-3.83,2.45-.02,4.91,0,7.36,0Z"/></g></g></g></svg>