<?xml version="1.0" encoding="UTF-8"?><svg xmlns="http://www.w3.org/2000/svg" viewBox="0 0 122 147.03"><defs><style>.d{fill:#4d897b;}</style></defs><g id="a"/><g id="b"><g id="c"><path class="d" d="M109.74,141.03h-43.87c-10.82,0-21.63,0-32.45,0H13.53c-.42,0-.83,0-1.25,0-2.51-.04-4.82-1.47-5.81-3.81-.34-.8-.46-1.57-.47-2.48,0-.12,0-.24,0-.36,0-.6,0-1.2,0-1.8V12.85c0-.15,0-.31,0-.46,0-.59,.04-1.03,.12-1.33,.72-3,3.15-4.98,6.15-5.03,.33,0,.67,0,1,0H48.02c11.09,0,22.19,0,33.28,0h24.26c1.39,0,2.77-.02,4.16,0,3.74,.05,6.27,2.97,6.28,6.69,.01,4.93,0,9.86,0,14.79v106.73c0,3.78-2.49,6.71-6.26,6.78s-3.87,6.07,0,6c6.89-.13,12.23-5.66,12.26-12.52,0-1.57,0-3.13,0-4.7v-55.91c0-11.05,0-22.09,0-33.14s0-15.5,0-23.25c0-1.63,0-3.27,0-4.9-.02-6.5-4.72-11.86-11.23-12.53-1.47-.15-3-.06-4.47-.06h-9.91c-10.26,0-20.51,0-30.77,0-11.01,0-22.02,0-33.03,0-6.47,0-12.93,0-19.4,0-4.95,0-9.69,2.18-11.91,6.84C.13,9.27,0,11.68,0,14.24v50.56c0,11.3,0,22.61,0,33.91v34.03c0,2.53,.1,4.91,1.2,7.29,2.19,4.73,6.95,6.99,11.95,6.99H109.74c3.86,0,3.87-6,0-6Z"/></g></g></svg>