<?xml version="1.0" encoding="UTF-8"?><svg xmlns="http://www.w3.org/2000/svg" viewBox="0 0 85.03 175.04"><defs><style>.d{fill:#fae013;fill-rule:evenodd;}.e{fill:#4d897b;}</style></defs><g id="a"/><g id="b"><g id="c"><g><path class="d" d="M77.48,3.69c.93,.58,1.7,1.1,2.28,1.56-.65-.65-1.43-1.19-2.28-1.56Z"/><path class="e" d="M75.97,6.28c.74,.46,1.47,.93,2.16,1.46l-.61-.47s.08,.06,.12,.1c.27,.29,.59,.5,.97,.62,.36,.19,.74,.27,1.16,.26,.41,.02,.8-.07,1.16-.26,.37-.12,.69-.33,.97-.62l.47-.61c.27-.47,.41-.97,.41-1.51l-.11-.8c-.14-.51-.4-.95-.77-1.32-.5-.5-1.07-.94-1.66-1.34-.39-.27-.8-.5-1.23-.69-.34-.22-.72-.34-1.12-.36-.4-.09-.8-.07-1.2,.05-.39,.09-.73,.27-1.02,.54-.33,.21-.58,.49-.77,.84l-.3,.72c-.14,.53-.14,1.06,0,1.6l.3,.72c.27,.45,.63,.81,1.08,1.08,.55,.24,1.07,.55,1.55,.92l-.61-.47c.26,.2,.5,.41,.73,.64l4.24-4.24c-.93-.73-1.88-1.4-2.89-2.03-.34-.22-.72-.34-1.12-.36-.4-.09-.8-.07-1.2,.05-.39,.09-.73,.27-1.02,.54-.33,.21-.58,.49-.77,.84l-.3,.72c-.14,.53-.14,1.06,0,1.6l.3,.72c.27,.45,.63,.81,1.08,1.08Z"/></g><path class="e" d="M9.24,140.81c-1.99-.65-3.21-2.44-3.23-4.58,0-.53,0-1.05,0-1.58V17.54c0-1.7,.1-3.44,0-5.14,0-.07,0-.15,0-.23L.89,14.29c.23,.2,.45,.41,.68,.61l-.88-2.12v123.54c0,1.66-.27,3.63,.68,5.09,1.33,2.03,3.65,3.48,5.55,4.88,1.31,.96,3.35,.22,4.1-1.08,.89-1.52,.23-3.14-1.08-4.1-.94-.69-1.88-1.39-2.75-2.18-.3-.27-.56-.58-.86-.85-.39-.35,.08,.04,.12,.15-.28-.81-.06,2.49,.23,1.06,.02-.08,0-.18,0-.27,.04-.63,0-1.27,0-1.9V28.25c0-5.1,.21-10.26,0-15.36-.05-1.26-.65-2.05-1.56-2.84C3.23,8.39,.01,9.45,.01,12.17v121.78c0,2.79,0,5.47,1.56,7.98,1.41,2.27,3.55,3.84,6.07,4.67,1.54,.5,3.28-.59,3.69-2.1,.45-1.63-.55-3.18-2.1-3.69Z"/><path class="e" d="M85.01,136.38v-30.25c0-9.5,0-18.99,0-28.49s0-19.62,0-29.44V11.37c0-4.45-2.07-8.12-6.03-10.27C76.51-.25,73.51,.02,70.79,.02H15.5C13.9,.02,12.29,0,10.69,.02,6.96,.09,3.51,1.95,1.55,5.16,.53,6.81,.05,8.74,.01,10.67c0,.43-.02,.88,0,1.31,.06,1.29,.63,2.1,1.56,2.92,1.9,1.67,5.12,.6,5.12-2.12v-3.43c0-3.86-6-3.87-6,0v3.43l5.12-2.12c-.23-.2-.45-.41-.68-.61l.88,2.12c0-1.26-.06-2.04,.26-3.06s1.14-1.93,2.18-2.54c.69-.41,1.46-.55,2.35-.55,.65,0,1.3,0,1.95,0h54.9c2.18,0,4.35-.02,6.53,0,.48,0,.94,.02,1.39,.16,.67,.2,1.24,.63,1.84,1.04,.15,.1,.3,.22,.45,.32,.45,.31-.33-.55-.06,0,.18,.35,.53,.67,.72,1.04,.39,.76,.49,1.55,.5,2.41,.02,3.63,0,7.27,0,10.9v114.5c0,3.86,6,3.87,6,0h0Z"/><path class="e" d="M36.01,20.4c-.06,.74-.48,1.65-.72,1.88-.38,.37-.73,.45-.2,.21,.16-.07,.33-.14,.47-.23,.33-.19-.78,.3-.39,.16,.14-.05,.28-.11,.42-.16,1.26-.47,2.55-.85,3.84-1.22,3.97-1.13,7.98-2.09,12-3.02,8.6-1.98,17.27-3.85,26-5.22,.36-.06,.71-.11,1.07-.16,.17-.02,.33-.05,.5-.07,.79-.11-.38,.04-.07,0,.53-.06,1.06-.13,1.59-.18,.35-.03,.7-.01,1.05-.04,.59-.05-.78-.16-.48-.07-.94-.26-.71-.4-1.35-1.53l-.72-1.26h0c-.19,.66,0,1.64,0,2.3v118.04c0,3.66-.11,7.34,0,11,0,.11-.01,.23,0,.34,0,.02,0,.05,0,.07-.14-1.14,.88-2.07,1.33-2.43-.06,.05-.14,.07-.21,.11-.42,.27,.48-.18,.33-.14-.3,.08-.6,.23-.9,.33-.86,.3-1.72,.58-2.59,.85-4.27,1.34-8.59,2.55-12.9,3.75-.88,.25-1.77,.49-2.66,.73-3.72,1.02-2.14,6.81,1.6,5.79,3.15-.86,6.28-1.74,9.42-2.65,2.28-.66,4.56-1.33,6.82-2.05,1.38-.44,2.95-.84,4.19-1.59,1.67-1.02,1.56-2.65,1.56-4.29V13.04c0-1.12,.05-2.25,0-3.37-.13-3.01-2.66-3.47-5.04-3.22-8.27,.87-16.49,2.78-24.6,4.55-4.6,1-9.19,2.05-13.74,3.23-3.07,.79-6.24,1.54-9.14,2.87-1.4,.64-2.36,1.7-2.48,3.3s1.47,3,3,3c1.72,0,2.88-1.38,3-3h0Z"/><path class="e" d="M25.32,13.46c-3.64-1.58-7.29-3.12-10.99-4.54-2.45-.94-4.93-1.9-7.48-2.52-1.99-.48-4.51-.77-5.72,1.33-.35,.6-.41,1.25-.43,1.91-.08,2.79,0,5.59,0,8.38v119.86c0,.77-.07,1.61,.13,2.36,.36,1.28,1.4,2.29,2.37,3.14,1.29,1.12,2.67,2.14,4.06,3.14,1.63,1.18,3.29,2.31,4.97,3.42,8.43,5.61,17.12,10.85,25.81,16.04,3.46,2.07,6.93,4.12,10.41,6.15,1.48,.87,2.99,1.98,4.59,2.61,1.75,.69,4.04-.03,5.66-.82,1.53-.74,2.82-1.97,3.76-3.39,1.07-1.62,1.44-3.53,1.44-5.44V44.41c0-2.89,.13-5.81,0-8.69s-3.55-4.74-5.81-6.11c-4.8-2.91-9.85-5.42-14.89-7.89-5.9-2.89-11.87-5.64-17.89-8.26-1.48-.65-3.22-.44-4.1,1.08-.74,1.27-.42,3.45,1.08,4.1,10.51,4.57,21.04,9.38,30.98,15.09,1.5,.86,2.97,1.77,4.4,2.75,.65,.45-.44-.44,.23,.18,.14,.13,.29,.28,.43,.4,.58,.47-.32-.55-.1-.14-.14-.25-.44-.96-.33-1.25-.18,.49,0,1.38,0,1.89,0,10.57,0,21.15,0,31.72v94.89c0,.37,0,.74,0,1.11,0,.09,0,.18,0,.27,.01,.38,.02,.27,0,.43-.29,1.87-1.87,2.98-3.69,3.02l1.51,.41c-5.36-3.1-10.69-6.25-16.01-9.43-8.99-5.38-18-10.79-26.65-16.71-2.04-1.4-4.15-2.79-5.97-4.46-.2-.18-.4-.38-.59-.57-.31-.31-.24-.44-.04-.02-.23-.49,.21,1.07,.23,1.04,.02-.03,0-.17,0-.2,.12-.93,0-1.96,0-2.9V12.18c0-.85,.14-1.84,0-2.68,0-.05,.01-.11,0-.15,0,0-1.35,2.36-1.36,2.36-.39,.28-.79,.27-1.08,.31,.11-.02,.24,0,.36,.01-.1-.01-.72-.14-.03,0,2.48,.53,4.87,1.42,7.24,2.32,3.53,1.33,7.01,2.78,10.47,4.28,1.49,.64,3.22,.44,4.1-1.08,.74-1.27,.42-3.46-1.08-4.1Z"/><g><path class="d" d="M81.01,6.67v.22c-.34-.6-.76-1.15-1.24-1.63,.8,.62,1.24,1.1,1.24,1.41Z"/><path class="e" d="M78.01,6.67v.22l5.59-1.51c-.17-.3-.36-.59-.58-.87-.36-.47-.71-.94-1.13-1.37l-4.24,4.24c.37,.28,.74,.58,1.03,.95l-.47-.61c.07,.08,.13,.17,.17,.27l-.3-.72s.03,.09,.04,.13l-.11-.8s0,.03,0,.05c-.02,.41,.07,.8,.26,1.16,.12,.37,.33,.69,.62,.97,.27,.29,.59,.5,.97,.62,.36,.19,.74,.27,1.16,.26l.8-.11c.51-.14,.95-.4,1.32-.77l.47-.61c.27-.47,.41-.97,.41-1.51v-.05l-.11-.8s0-.04-.01-.06c-.08-.29-.22-.58-.36-.85-.03-.05-.06-.11-.1-.16-.19-.26-.39-.53-.6-.77-.28-.32-.61-.59-.94-.84-.27-.29-.59-.5-.97-.62-.36-.19-.74-.27-1.16-.26-.41-.02-.8,.07-1.16,.26-.37,.12-.69,.33-.97,.62l-.47,.61c-.27,.47-.41,.97-.41,1.51l.11,.8c.14,.51,.4,.95,.77,1.32,.23,.23,.45,.48,.65,.74l-.47-.61c.22,.28,.42,.58,.59,.89l.47,.61c.27,.29,.59,.5,.97,.62,.23,.14,.49,.2,.76,.2,.4,.09,.8,.07,1.2-.05l.72-.3,.61-.47c.29-.27,.5-.59,.62-.97,.19-.36,.27-.74,.26-1.16v-.22c.02-.41-.07-.8-.26-1.16-.12-.37-.33-.69-.62-.97-.27-.29-.59-.5-.97-.62-.36-.19-.74-.27-1.16-.26l-.8,.11c-.51,.14-.95,.4-1.32,.77l-.47,.61c-.27,.47-.41,.97-.41,1.51Z"/></g></g></g></svg>