<?xml version="1.0" encoding="UTF-8"?><svg xmlns="http://www.w3.org/2000/svg" viewBox="0 0 85.06 197.95"><defs><style>.d{fill:#fae013;fill-rule:evenodd;}.e{fill:#4d897b;}</style></defs><g id="a"/><g id="b"><g id="c"><g><path class="d" d="M77.48,26.6c.93,.58,1.7,1.1,2.28,1.56-.65-.65-1.43-1.19-2.28-1.56Z"/><path class="e" d="M75.97,29.19c.74,.46,1.47,.93,2.16,1.46l-.61-.47s.08,.06,.12,.1c.27,.29,.59,.5,.97,.62,.36,.19,.74,.27,1.16,.26,.41,.02,.8-.07,1.16-.26,.37-.12,.69-.33,.97-.62l.47-.61c.27-.47,.41-.97,.41-1.51l-.11-.8c-.14-.51-.4-.95-.77-1.32-.5-.5-1.07-.94-1.66-1.34-.39-.27-.8-.5-1.23-.69-.34-.22-.72-.34-1.12-.36-.4-.09-.8-.07-1.2,.05-.39,.09-.73,.27-1.02,.54-.33,.21-.58,.49-.77,.84l-.3,.72c-.14,.53-.14,1.06,0,1.6l.3,.72c.27,.45,.63,.81,1.08,1.08,.55,.24,1.07,.55,1.55,.92l-.61-.47c.26,.2,.5,.41,.73,.64l4.24-4.24c-.93-.73-1.88-1.4-2.89-2.03-.34-.22-.72-.34-1.12-.36-.4-.09-.8-.07-1.2,.05-.39,.09-.73,.27-1.02,.54-.33,.21-.58,.49-.77,.84l-.3,.72c-.14,.53-.14,1.06,0,1.6l.3,.72c.27,.45,.63,.81,1.08,1.08Z"/></g><path class="e" d="M9.24,163.72c-1.99-.65-3.21-2.44-3.23-4.58,0-.53,0-1.05,0-1.58V40.45c0-1.7,.1-3.44,0-5.14,0-.07,0-.15,0-.23l-5.12,2.12c.23,.2,.45,.41,.68,.61l-.88-2.12v123.54c0,1.66-.27,3.63,.68,5.09,1.33,2.03,3.65,3.48,5.55,4.88,1.31,.96,3.35,.22,4.1-1.08,.89-1.52,.23-3.14-1.08-4.1-.94-.69-1.88-1.39-2.75-2.18-.3-.27-.56-.58-.86-.85-.39-.35,.08,.04,.12,.15-.28-.81-.06,2.49,.23,1.06,.02-.08,0-.18,0-.27,.04-.63,0-1.27,0-1.9V51.16c0-5.1,.21-10.26,0-15.36-.05-1.26-.65-2.05-1.56-2.84C3.23,31.3,.01,32.36,.01,35.08v121.78c0,2.79,0,5.47,1.56,7.98,1.41,2.27,3.55,3.84,6.07,4.67,1.54,.5,3.28-.59,3.69-2.1,.45-1.63-.55-3.18-2.1-3.69Z"/><path class="e" d="M25.31,36.37c-3.64-1.58-7.29-3.12-10.99-4.54-2.45-.94-4.93-1.9-7.48-2.52-1.99-.48-4.51-.77-5.72,1.33-.35,.6-.41,1.25-.43,1.91-.08,2.79,0,5.59,0,8.38v119.86c0,.77-.07,1.61,.13,2.36,.36,1.28,1.4,2.29,2.37,3.14,1.29,1.12,2.67,2.14,4.06,3.14,1.63,1.18,3.29,2.31,4.97,3.42,8.43,5.61,17.12,10.85,25.81,16.04,3.46,2.07,6.93,4.12,10.41,6.15,1.48,.87,2.99,1.98,4.59,2.61,1.75,.69,4.04-.03,5.66-.82,1.53-.74,2.82-1.97,3.76-3.39,1.07-1.62,1.44-3.53,1.44-5.44V67.32c0-2.89,.13-5.81,0-8.69s-3.55-4.74-5.81-6.11c-4.8-2.91-9.85-5.42-14.89-7.89-5.9-2.89-11.87-5.64-17.89-8.26-1.48-.65-3.22-.44-4.1,1.08-.74,1.27-.42,3.45,1.08,4.1,10.51,4.57,21.04,9.38,30.98,15.09,1.5,.86,2.97,1.77,4.4,2.75,.65,.45-.44-.44,.23,.18,.14,.13,.29,.28,.43,.4,.58,.47-.32-.55-.1-.14-.14-.25-.44-.96-.33-1.25-.18,.49,0,1.38,0,1.89v126.62c0,.37,0,.74,0,1.11,0,.09,0,.18,0,.27,.01,.38,.02,.27,0,.43-.29,1.87-1.87,2.98-3.69,3.02l1.51,.41c-5.36-3.1-10.69-6.25-16.01-9.43-8.99-5.38-18-10.79-26.65-16.71-2.04-1.4-4.15-2.79-5.97-4.46-.2-.18-.4-.38-.59-.57-.31-.31-.24-.44-.04-.02-.23-.49,.21,1.07,.23,1.04,.02-.03,0-.17,0-.2,.12-.93,0-1.96,0-2.9V35.09c0-.85,.14-1.84,0-2.68,0-.05,.01-.11,0-.15,0,0-1.35,2.36-1.36,2.36-.39,.28-.79,.27-1.08,.31,.11-.02,.24,0,.36,.01-.1-.01-.72-.14-.03,0,2.48,.53,4.87,1.42,7.24,2.32,3.53,1.33,7.01,2.78,10.47,4.28,1.49,.64,3.22,.44,4.1-1.08,.74-1.27,.42-3.46-1.08-4.1Z"/><path class="e" d="M83.6,28.29c-2.12-3.51-5.82-5.36-9.86-5.36H12.75c-1.55,0-3.08-.05-4.6,.3-3.09,.7-5.83,2.98-7.13,5.86C.34,30.59,.02,32.12,.01,33.77c0,.42-.02,.84,0,1.26,.06,1.25,.67,2,1.56,2.78,1.9,1.67,5.12,.6,5.12-2.12v-1.71c0-.41,.02-.82,0-1.22-.07-1.54,.62,.72-1.36,1.87,.06-.04-.86,.32-.52,.23-.84,.21-.75,.09-.4,.08,.69-.01-.74-.18,.07,0s1.59,.37,2.37,.61c5.27,1.6,10.38,3.81,15.42,6,9.9,4.3,19.76,8.87,29.22,14.1,1.63,.9,3.25,1.82,4.82,2.83,.55,.35,1.06,.76,1.61,1.11-.79-.5-.15-.12,.06,.07,.16,.14,.3,.35,.47,.46-.16-.11-.37-.48-.49-.89,.1,.35,0-.87-.08-.64-.02,.04,0,.11,0,.15-.02,.27,0,.55,0,.82v107.36c0,1.62,1.37,3,3,3h7.61c2.71,0,5.7,.3,8.37-.3,4.8-1.08,8.05-5.57,8.14-10.38,0-.53,0-1.07,0-1.6V52.16c0-6.17,.12-12.35,0-18.52-.04-1.91-.5-3.67-1.41-5.35-1.84-3.4-7.02-.37-5.18,3.03,.91,1.67,.59,4.1,.59,6.01v121.04c0,.87,.01,1.52-.17,2.16-.47,1.71-1.75,2.91-3.57,3.32-.3,.07-.61,.08-1.12,.08-.44,0-.88,0-1.32,0h-11.94l3,3V59.8c0-.71,.06-1.48-.14-2.16-.41-1.44-1.66-2.38-2.8-3.22-1.26-.94-2.61-1.75-3.96-2.54-9.23-5.4-19.04-9.9-28.81-14.23-5.74-2.55-11.53-5.06-17.46-7.13-2.87-1-9.75-3.61-10.04,1.72-.06,1.15,0,2.31,0,3.46l5.12-2.12c-.23-.2-.45-.41-.68-.61l.88,2.12c0-.72-.06-1.48,.03-2.2,.06-.5,.54-1.68,.89-2.11,1.05-1.32,2.33-1.82,3.82-1.84,2.77-.05,5.55,0,8.33,0h53.87c.45,0,.9,0,1.36,0,.57,.01,1.11,.04,1.64,.26s1.11,.69,1.61,1.04c.27,.19,.64,.71,.1,.06,.29,.35,.53,.63,.77,1.02,1.99,3.3,7.18,.29,5.18-3.03Z"/><path class="e" d="M78.97,24c-2.83-1.2-5.5-1.07-8.47-1.07H23.8l3,3V4.57c0-.27,.15-1.07,0-1.31,.15,.25-.32,1.28-.38,1.4-.04,.07-.48,.58-.69,.75-.1,.08-1.13,.54-.81,.45-.78,.21-.71,.18-.12,.1,.24-.03-.98-.18-.28-.03,.15,.03,.3,.06,.45,.09,.42,.09,.84,.2,1.25,.32,.99,.28,1.96,.6,2.92,.93,2.73,.95,5.43,2.02,8.1,3.12,1.9,.78,2.51,1.04,4.46,1.88,1.66,.72,3.32,1.45,4.97,2.19,3.49,1.56,6.97,3.17,10.42,4.83,6.38,3.06,12.84,6.15,18.85,9.91,3.28,2.05,6.3-3.14,3.03-5.18-5.44-3.4-11.26-6.23-17.02-9.03-7.17-3.48-14.44-6.77-21.8-9.84-2.88-1.2-5.77-2.37-8.7-3.41-1.81-.65-3.66-1.32-5.57-1.63-2.42-.39-4.95,.34-5.08,3.25-.09,1.95,0,3.92,0,5.86V25.93c0,1.62,1.37,3,3,3h49.32c.93,0,2.01-.1,2.83,.25,1.49,.63,3.21,.45,4.1-1.08,.74-1.26,.42-3.47-1.08-4.1Z"/><g><path class="d" d="M81.01,29.58v.22c-.34-.6-.76-1.15-1.24-1.63,.8,.62,1.24,1.1,1.24,1.41Z"/><path class="e" d="M78.01,29.58v.22l5.59-1.51c-.17-.3-.36-.59-.58-.87-.36-.47-.71-.94-1.13-1.37l-4.24,4.24c.37,.28,.74,.58,1.03,.95l-.47-.61c.07,.08,.13,.17,.17,.27l-.3-.72s.03,.09,.04,.13l-.11-.8s0,.03,0,.05c-.02,.41,.07,.8,.26,1.16,.12,.37,.33,.69,.62,.97,.27,.29,.59,.5,.97,.62,.36,.19,.74,.27,1.16,.26l.8-.11c.51-.14,.95-.4,1.32-.77l.47-.61c.27-.47,.41-.97,.41-1.51v-.05l-.11-.8s0-.04-.01-.06c-.08-.29-.22-.58-.36-.85-.03-.05-.06-.11-.1-.16-.19-.26-.39-.53-.6-.77-.28-.32-.61-.59-.94-.84-.27-.29-.59-.5-.97-.62-.36-.19-.74-.27-1.16-.26-.41-.02-.8,.07-1.16,.26-.37,.12-.69,.33-.97,.62l-.47,.61c-.27,.47-.41,.97-.41,1.51l.11,.8c.14,.51,.4,.95,.77,1.32,.23,.23,.45,.48,.65,.74l-.47-.61c.22,.28,.42,.58,.59,.89l.47,.61c.27,.29,.59,.5,.97,.62,.23,.14,.49,.2,.76,.2,.4,.09,.8,.07,1.2-.05l.72-.3,.61-.47c.29-.27,.5-.59,.62-.97,.19-.36,.27-.74,.26-1.16v-.22c.02-.41-.07-.8-.26-1.16-.12-.37-.33-.69-.62-.97-.27-.29-.59-.5-.97-.62-.36-.19-.74-.27-1.16-.26l-.8,.11c-.51,.14-.95,.4-1.32,.77l-.47,.61c-.27,.47-.41,.97-.41,1.51Z"/></g></g></g></svg>