<?xml version="1.0" encoding="UTF-8"?><svg xmlns="http://www.w3.org/2000/svg" viewBox="0 0 122.15 79.01"><defs><style>.d{fill:#4d897b;}</style></defs><g id="a"/><g id="b"><g id="c"><path class="d" d="M116.11,6.73V54.59c0,.36-.03,.73,0,1.1,0,.07-.03,.2,0,.27-.05-.13,.57-.98-.12-.38l5.12,2.12V6.89c0-1.54,.04-3.09-1.55-4.01s-3.54-.19-5.13,.25c-2.31,.65-4.58,1.41-6.85,2.18-6.11,2.07-12.16,4.28-18.18,6.59-4.61,1.77-9.43,3.43-13.79,5.77-1.48,.8-2.45,1.82-2.51,3.6-.05,1.55,0,3.1,0,4.65V59.74l3-3h-30l3,3V22.88c0-1.46,.17-2.96-.94-4.11-.99-1.02-2.54-1.59-3.81-2.16-2.43-1.09-4.91-2.09-7.38-3.07-6.05-2.4-12.17-4.67-18.31-6.82-4.2-1.47-8.53-3.26-12.92-4.08-2.29-.43-4.53,.35-4.63,3.1-.04,1.17,0,2.35,0,3.51V57.7l5.12-2.12c-.72-.63-.19,.59-.12,.33,.04-.15,0-.38,0-.54V7.61c0-.29,0-.59,0-.88,.01,.4-.14,.62-.01,.26-.08,.21-.62,.8-.22,.49,.6-.46-.58,.27,.16-.14,.2-.11,.4-.24,.61-.34,.49-.26-.67,.23,.28-.13,.32-.12,.65-.22,.98-.31,.61-.17,1.24-.32,1.87-.4,1.29-.18,2.6-.15,3.9-.15H104.15c2.65,0,5.45-.2,8.09,.13,1.06,.13,2.56,.5,3.28,.83-.16-.07,1.3,.83,.65,.36,.24,.17,.41,.65,.09,.04l-.14-.37c.09,.32,.08,.23-.01-.26,.1,1.62,1.31,3,3,3,1.55,0,3.1-1.37,3-3C121.78,1.07,114.17,.02,109.8,0,109.01,0,108.22,0,107.43,0h-13.52c-14.77,0-29.55,0-44.32,0H14.97C14.13,0,13.28,0,12.44,0,8.36,.02,1.38,.85,.23,5.75c-.3,1.28-.12,2.76-.12,4.05v8.36C.11,30.66-.14,43.19,.11,55.69c.03,1.63,.63,3.04,1.88,4.13,1.9,1.66,5.12,.6,5.12-2.12V6.1c0-1.71,.2,.99-1.44,1.98-.22,.13-1.88,.37-1.13,.39-.99-.03-.58-.09-.04,.02,.75,.16,1.48,.37,2.21,.58,2.26,.66,4.5,1.41,6.74,2.17,5.93,2.02,11.82,4.17,17.66,6.41,2.66,1.02,5.31,2.06,7.94,3.15,.25,.11,.51,.21,.76,.32-.91-.38,.05,.02,.23,.1,.47,.2,.95,.41,1.42,.62,.71,.32,1.42,.64,2.11,1.01,.2,.11,.39,.24,.59,.34,.28,.14,.46,.53-.35-.29,.33,.34-.32-.45-.33-.46-.65-1.11-.38-2.01-.38-.78V59.74c0,1.62,1.37,3,3,3h30c1.62,0,3-1.37,3-3V21.59c0-1.17,.24-.2-.38,.85-.42,.72-.58,.7-.33,.46-.85,.81-.62,.43-.35,.29,.23-.12,.45-.26,.67-.38,.68-.36,1.39-.68,2.1-1,.45-.2,.9-.4,1.35-.59,.13-.06,.92-.39,.43-.18-.46,.19,.47-.2,.65-.27,1.26-.52,2.52-1.03,3.79-1.53,5.84-2.31,11.74-4.5,17.66-6.59,4.26-1.5,8.59-3.22,13.02-4.16,.54-.12,.92-.05-.04-.02,.07,0,.14-.01,.2-.01-1.11-.05-3.04-.91-2.78-2.91-.02,.19,0,.39,0,.58V57.7c0,2.73,3.22,3.78,5.12,2.12,2.31-2.02,1.88-4.89,1.88-7.62V6.73c0-3.86-6-3.87-6,0Z"/><path class="d" d="M1.11,5.54V56.89c0,.74-.02,1.42,.27,2.14,.46,1.17,1.58,1.85,2.61,2.46,2.96,1.77,6.12,3.25,9.22,4.76,4.27,2.08,8.57,4.1,12.88,6.1,3.54,1.65,7.09,3.28,10.64,4.9,.88,.4,1.75,.8,2.64,1.2,2.26,1.01,5.3,.48,7.34-.92,1.45-1,2.35-2.39,2.41-4.17,.03-.71,0-1.43,0-2.14V23.5c0-.75,.03-1.5,0-2.24-.06-1.47-.79-2.39-1.97-3.14-2.43-1.55-5.37-2.53-8.02-3.61-4.18-1.71-8.4-3.33-12.63-4.9s-8.54-3.13-12.85-4.59c-2.6-.88-5.27-1.89-7.98-2.39-2.24-.41-4.26,.33-4.56,2.92-.19,1.61,1.51,3,3,3,1.78,0,2.81-1.38,3-3l-.72,1.26c-.16,.87-.62,1.38-1.4,1.55,.12-.03,.42-.12-.34,.04-.5,.11-.45,.05-.25,.05,.63-.01-.86-.19-.32-.05,.41,.11,.83,.18,1.24,.29,1.35,.35,2.68,.77,4,1.2,3.98,1.28,7.92,2.69,11.85,4.12,4.38,1.6,8.75,3.24,13.09,4.96,.94,.37,1.87,.75,2.8,1.13,.43,.18,.86,.35,1.3,.53,.21,.09,.41,.17,.62,.26,.69,.29-.23-.1,.13,.05,1.28,.55,2.56,1.09,3.81,1.71,.38,.19,.75,.39,1.12,.6,.17,.09,.58,.45,.06,0s-.27-.22-.18-.13c-.23-.24-1.07-1.58-.79-1.98-.16,.23,0,1.17,0,1.44v45.65c0,.42-.26,5.1,0,5.19-.06-.02,.1-.57,.13-.65,.15-.43,.45-.35-.09-.11-.1,.04-.39,.15-.75,.23-.41,.09-.77,.11-1.21,.12l1.51,.41c-5.14-2.32-10.27-4.68-15.38-7.07-4.02-1.88-8.04-3.77-12.03-5.72-2.81-1.37-5.66-2.72-8.34-4.33-.18-.11-.36-.22-.54-.33-.16-.1-.71-.51-.15-.08,.52,.39,.15,.13,.04,0,.34,.38,.43,.62,.59,1.24,.47,1.73,.14,.81,.2,.59,.08-.35,0-.82,0-1.18V23.14c0-5.76,.15-11.55,0-17.31,0-.09,0-.19,0-.28C7.11,1.68,1.11,1.68,1.11,5.54Z"/><path class="d" d="M73.11,21.14v48.31c0,1.68-.27,3.68,.22,5.32,1.01,3.37,6.25,5.13,9.26,3.8,6.13-2.7,12.2-5.57,18.26-8.42,4.1-1.93,8.19-3.87,12.24-5.91,1.45-.73,2.9-1.47,4.31-2.26,.91-.51,1.97-1.06,2.7-1.82,1.34-1.38,1.01-3.55,1.01-5.33V7.56c0-.64,.03-1.28,0-1.91-.08-1.89-1.49-3.24-3.38-3.18-2.62,.08-5.39,1.3-7.84,2.11-4.2,1.39-8.38,2.89-12.53,4.42s-8.64,3.24-12.92,4.97c-2.97,1.2-6.04,2.34-8.87,3.87-1.38,.75-2.29,1.66-2.47,3.31s1.5,3,3,3c1.76,0,2.83-1.38,3-3-.09,.81-.4,1.59-.77,1.96,.24-.24-.77,.46-.39,.3,.21-.09,.41-.25,.61-.36,.67-.37,1.37-.69,2.06-1,.44-.2,.88-.39,1.32-.59,.23-.1,.46-.2,.69-.3,.16-.07,.32-.14,.48-.21,.53-.23-.63,.26-.04,.02,1.25-.52,2.5-1.03,3.76-1.54,5.91-2.36,11.87-4.59,17.87-6.73,4.28-1.52,8.65-3.29,13.1-4.22,.12-.03,.25-.04,.37-.07,.5-.14-.93,.06-.45,.06,.06,0,.13,0,.19,0,.3,.02-1-.18-.69-.09-.78-.17-1.24-.69-1.4-1.55-.48-1.33-.72-1.75-.72-1.26-.06,.19,0,.48,0,.67V46.41c0,3.64-.13,7.32,0,10.96,0,.09,0,.19,0,.29,0,.01,0,.03,0,.04,0,.05,0,.1,0,.14-.16-.79,.36-1.47,.81-1.99-.05,.05-.1,.1-.15,.15-.3,.31,.76-.49,.31-.24-.25,.14-.49,.33-.74,.48-1.79,1.09-3.68,2.02-5.55,2.96-9.74,4.9-19.69,9.42-29.62,13.92-.22,.1-.45,.2-.67,.3l1.51-.41c-.82-.02-1.6-.21-2.09-.42-.45-.19-.03-.02,.1,.34,.06,.15-.02,.66,.08,.43,.26-.56,0-1.87,0-2.47V21.14c0-3.86-6-3.87-6,0Z"/></g></g></svg>