<?xml version="1.0" encoding="UTF-8"?><svg xmlns="http://www.w3.org/2000/svg" viewBox="0 0 122.09 175"><defs><style>.d{fill:#4d897b;}</style></defs><g id="a"/><g id="b"><g id="c"><path class="d" d="M116.02,12.27V90.19c0,10.17,0,20.34,0,30.51,0,4.66,.05,9.32,0,13.98,0,.96-.17,1.88-.59,2.74l5.59,1.51V15.09c0-1.87,.07-3.76,0-5.64-.08-2.09-1.62-3.53-3.71-3.43-1.97,.09-3.91,1.15-5.64,1.98-5.51,2.65-10.77,5.87-15.95,9.12-5.49,3.44-10.94,6.99-16.09,10.93-2.45,1.87-6.5,4.34-6.61,7.81-.07,2.25,0,4.51,0,6.76v101.4l3-3h-30l3,3V37.97c0-.72,.03-1.44,0-2.16-.05-1.48-.74-2.54-1.72-3.61-1.52-1.66-3.4-3.02-5.18-4.37-2.39-1.81-4.85-3.53-7.33-5.21-5.69-3.84-11.52-7.5-17.48-10.9-2.34-1.34-4.71-2.65-7.15-3.81-1.68-.8-3.62-1.86-5.55-1.9-2.07-.04-3.5,1.43-3.6,3.46-.03,.63,0,1.28,0,1.91v127.56l5.59-1.51c-.75-1.57-.59-3.37-.59-5.07V14.4c0-.59,0-1.19,0-1.78,0-1.2,.16-2.18,.59-3.03,.74-1.46,1.71-2.44,3.28-3.13-.18,.08,.61-.2,.83-.26,.6-.16,.45-.14,.87-.17,.24-.02,.49-.02,.73-.03,.45,0,.91,0,1.36,0h20.29c10.93,0,21.86,0,32.79,0h42.28c.2,0,.39,0,.59,0,.47,0,1.11,.06,1.2,.08,1.65,.35,2.68,.91,3.8,2.23,.86,1.01,1.37,2.48,1.39,3.95,.07,3.86,6.07,3.87,6,0C121.9,5.33,116.31,.03,109.43,0c-1.96,0-3.92,0-5.88,0-9.05,0-18.1,0-27.14,0-11.4,0-22.79,0-34.19,0H16.79C15.3,0,13.81-.01,12.31,0,5.48,.11,.1,5.59,.02,12.4-.03,16.98,.02,21.57,.02,26.15V119.52C.02,124.49,0,129.46,.02,134.43c.01,2.13,.49,4.1,1.41,6.03,1.33,2.77,5.59,1.31,5.59-1.51V16.13c0-2.14,.07-4.3,0-6.44,0-.11,.02-.25,0-.35,.23,1.06-.98,2.3-2,2.6,.46-.14-.92,.08-.56,.07,.54-.02-.33-.02-.43-.08,.48,.27,1.25,.36,1.78,.56,.8,.3-.5-.24,.03,0,.21,.1,.42,.18,.63,.28,.49,.22,.97,.46,1.46,.69,5.52,2.72,10.8,5.96,16.01,9.23,2.9,1.83,5.78,3.7,8.61,5.63,1.29,.88,2.57,1.77,3.84,2.68,.55,.4,1.1,.8,1.65,1.2,.26,.19,.51,.38,.77,.58,.21,.16,1.16,.9,.41,.31,1.47,1.15,2.8,2.36,4.13,3.66,.35,.34-.5-.77-.17-.21,.04,.07,.1,.21,.16,.26-.15-.12-.36-.88-.3-1.12-.03,.13,0,.31,0,.44-.04,2.5,0,5.01,0,7.51v100.39c0,1.62,1.37,3,3,3h30c1.62,0,3-1.37,3-3V38.68c0-.88,.02-1.75,0-2.63,0-.12,.03-.27,0-.39-.07-.32-.17,.98-.08,.64,.11-.41-.39,.88-.19,.44,.04-.1,.11-.18,.17-.27,.29-.44-.64,.69-.12,.17,.56-.57,1.11-1.13,1.72-1.66,.37-.33,.76-.64,1.14-.96,.21-.17,.43-.34,.64-.51,.11-.09,.23-.18,.34-.26,.57-.46-.45,.34,.03-.02,2.37-1.78,4.78-3.5,7.23-5.17,5.57-3.78,11.27-7.36,17.09-10.72,2.39-1.38,4.8-2.73,7.28-3.94,.46-.22,.91-.44,1.38-.65,.21-.09,.42-.18,.62-.28,.48-.22-.74,.28-.25,.11,.11-.04,.22-.09,.33-.13,.32-.12,.64-.24,.96-.34,.44-.13,1.35-.15,.06-.09,.09,0,.17-.01,.26,0-.59-.03-.74-.04-1.26-.34-.71-.41-1.5-1.54-1.35-2.32-.03,.13,0,.28,0,.41-.02,.79,0,1.58,0,2.37v126.81c0,2.82,4.26,4.29,5.59,1.51s1.41-5.25,1.41-8.1V27.84c0-5.11,.16-10.25,0-15.36,0-.07,0-.14,0-.22,0-3.86-6-3.87-6,0Z"/><path class="d" d="M1.02,9.33V138.45c0,1.28,.21,2.42,.96,3.5,1.66,2.38,3.89,4.38,6.01,6.34,6.37,5.89,13.09,11.39,19.81,16.87,2.7,2.2,5.42,4.39,8.14,6.56,1.4,1.12,3.45,3.28,5.31,3.29,3.79,.02,6.74-3.42,7.48-6.89,.28-1.34,.28-2.65,.28-4.01V38.55c0-.93,.05-1.88,0-2.82-.11-2.07-1.58-3.52-3.05-4.81-5.78-5.11-12.51-9.31-19.02-13.4S14.29,9.41,7.4,6.7c-.9-.35-1.86-.68-2.84-.69-1.93-.03-3.46,1.38-3.54,3.32-.07,1.62,1.43,3,3,3,1.68,0,2.93-1.37,3-3-.04,1.07-.65,2-1.68,2.47-.51,.24-.39,.15-.24,.11,.11-.03-1.03,.1-.57,.09,.49,0-.91-.23-.38-.05,.17,.06,.36,.09,.54,.14,.46,.13,.89,.32,1.33,.48s-.69-.31-.25-.11c.12,.06,.25,.11,.37,.16,.31,.14,.62,.28,.92,.42,3.14,1.49,6.18,3.22,9.18,4.97,7.27,4.25,14.42,8.79,21.22,13.76,.67,.49,1.33,1,1.99,1.49,.31,.23-.48-.38-.18-.14,.07,.05,.14,.11,.21,.16,.13,.11,.27,.21,.4,.32,.29,.23,.58,.47,.87,.71,.84,.7,1.65,1.43,2.41,2.22,.46,.48-.04-.04-.08-.13,.03,.08,.18,.33,.24,.38-.18-.14-.33-.93-.3-1.11-.05,.23,0,.52,0,.76v108.82c0,6.75,.1,13.51,0,20.26-.01,.74-.18,1.65-.41,2.12-.33,.67-.43,.8-.91,1.18,.41-.33-.64,.36-.31,.16,.22-.14-.15,.03-.2,.04,.12-.02,.55-.03-.08,0l2.12,.88c-3.76-2.96-7.48-5.96-11.19-8.98-6.54-5.32-13.06-10.68-19.28-16.38-1.18-1.08-2.34-2.17-3.47-3.3-.46-.46-.91-.92-1.34-1.4-.17-.19-.77-1.13-1-1.17,.13,.02,.5,.73,.21,.26-.05-.07-.1-.14-.15-.21-.08-.13-.15-.29-.24-.41-.26-.33,.29,.86,.16,.34,.09,.32,.06,1.03,.09,.3,0-.15,0-.31,0-.46V18.84c0-3.03,.05-6.07,0-9.1,0-.14,0-.27,0-.41,0-3.86-6-3.87-6,0Z"/><path class="d" d="M73.02,35.66v126.85c0,1.01-.02,2.03,0,3.04,.05,3.23,1.32,6.39,4.04,8.27,1.77,1.22,4.22,1.7,5.99,.32,.08-.06,.16-.13,.24-.19,.59-.46,1.17-.93,1.76-1.39,5.93-4.71,11.82-9.49,17.62-14.35,3.31-2.78,6.61-5.59,9.82-8.48,2.26-2.04,4.59-4.09,6.53-6.43,1.17-1.41,2-2.65,2-4.55V11.78c0-.79,.04-1.6,0-2.39-.17-3.12-3.07-3.82-5.58-2.99-2.79,.93-5.45,2.4-8.02,3.81-3.61,1.97-7.15,4.08-10.64,6.25-6.8,4.22-13.68,8.58-19.84,13.72-1.68,1.4-3.82,3.12-3.91,5.48-.06,1.62,1.42,3,3,3,1.68,0,2.94-1.37,3-3-.02,.44-.18,.88-.27,1.08,.21-.46,.54-.41-.09,.07,.42-.32,.78-.85,1.17-1.21,.57-.53,1.16-1.03,1.76-1.52,.34-.28,.69-.55,1.04-.83,.56-.44-.49,.37,.1-.08,.22-.17,.44-.34,.67-.51,4-3.01,8.18-5.79,12.4-8.49s8.83-5.54,13.38-8.08c1.79-1,3.6-1.98,5.45-2.87,.34-.16,.68-.32,1.02-.48,.17-.08,.34-.15,.5-.22,.66-.3-.67,.26-.02,0,.5-.19,.99-.36,1.5-.52,.58-.18,.38-.01-.2,0,.07,0,.13,0,.2,0-.6-.03-.73-.04-1.26-.34-.74-.43-1.42-1.77-1.35-2.27-.05,.35,0,.73,0,1.08v5.78c0,7.53,0,15.05,0,22.58s0,20.71,0,31.06v57.52c0,3.81-.12,7.64,0,11.45,.02,.61-.06,.4,.09-.25-.14,.6,.49-.74,.12-.26-.13,.17-.25,.38-.36,.56-.31,.51,.26-.3,.18-.22-.1,.09-.18,.23-.27,.34-.23,.27-.46,.53-.7,.79-.57,.62-1.16,1.22-1.76,1.82-3.44,3.4-7.12,6.55-10.79,9.68-7.02,5.98-14.19,11.79-21.42,17.52-.44,.35-.87,.69-1.31,1.03l2.12-.88c-.21,0-.69-.17-.98-.52-.59-.72-.87-1.62-.92-2.49-.03-.52,0-1.05,0-1.58V55.14c0-6.39,.17-12.81,0-19.2,0-.09,0-.18,0-.27,0-3.86-6-3.87-6,0Z"/></g></g></svg>