<?xml version="1.0" encoding="UTF-8"?><svg xmlns="http://www.w3.org/2000/svg" viewBox="0 0 30.78 34.48"><g id="a"/><g id="b"><g id="c"><g><path d="M23.24,16.41c-.06,1.73-.91,2.8-2.28,2.87-2.03,.1-4-1.21-4.83-3.22-.06-.14-.2-.26-.36-.45-.19,.19-.41,.3-.47,.47-.67,2.09-2.43,2.51-4.16,2.82-1.52,.28-2.4-.4-2.82-1.85-.46-1.58,.04-2.84,1.39-3.85H.27c-.02-.14-.04-.29-.06-.44,2.49-1.25,5-2.45,7.45-3.78,.56-.3,1.16-.96,1.31-1.57,.52-2.06,.89-4.17,1.23-6.28,.18-1.1,.72-1.32,1.62-.97,1.08,.41,2.13,.99,3.25,1.22,.9,.19,1.9,.11,2.81-.1,.86-.2,1.64-.75,2.47-1.09,.91-.37,1.61-.14,1.85,.94,.49,2.17,.89,4.36,1.47,6.5,.18,.69,.67,1.47,1.24,1.83,1.87,1.21,3.85,2.26,5.76,3.63-5.23,.2-10.46,.4-15.54,.59,1.97,.11,4.09,.19,6.21,.36,1.47,.12,1.96,.78,1.9,2.37Z"/><path d="M26.3,24.78c1.43,1.23,2.8,2.41,4.17,3.59-.03,.06-.06,.13-.08,.19-1.2-.54-2.4-1.08-3.59-1.63q-2.13-.98-3.78,1.14c.79,.72,1.59,1.45,2.49,2.27-1.78,1.42-3.48,2.78-5.19,4.14-.05-.06-.11-.11-.16-.17,1.23-1.36,2.46-2.72,3.67-4.06q-1.26-2.34,.36-4.47c1.44-1.88,2.89-3.74,4.37-5.65-1.16-1.33-2.26-2.6-3.37-3.88l.16-.17c1.76,1.43,3.52,2.86,5.44,4.42-1.5,1.43-2.93,2.81-4.48,4.28Z"/><path d="M7.97,27.73l-.14,.1c-1.5-2.05-3.2-1.69-5.04-.53-.83,.52-1.77,.85-2.79,1.08,.69-.59,1.37-1.19,2.06-1.77,.73-.62,1.46-1.24,2.27-1.94-1.42-1.36-2.8-2.68-4.34-4.15,1.88-1.55,3.71-3.05,5.53-4.55,.05,.05,.11,.1,.16,.15-1.14,1.32-2.28,2.65-3.42,3.97,1.93,2.58,3.81,5.11,5.7,7.64Z"/><path d="M10.62,34.29l-.15,.19c-1.71-1.36-3.42-2.71-5.03-3.98,.83-.92,1.61-1.79,2.39-2.67l.14-.1c-.09,.41-.12,.85-.29,1.22-.19,.43-.5,.81-.8,1.25,1.28,1.4,2.51,2.74,3.74,4.09Z"/></g></g></g></svg>